<svg xmlns="http://www.w3.org/2000/svg" width="1240" height="1240"><path d="M585 59.096c-30.271 1.96-63.514 6.812-92.282 13.469-207.765 48.081-372.072 212.388-420.153 420.153C40.487 631.335 62.073 777.364 132.768 900c77.81 134.977 209.241 232.663 359.732 267.373 44.052 10.16 79.637 14.093 127.5 14.093 39.91 0 66.982-2.351 102.41-8.895 208.623-38.537 378.326-192.381 437.616-396.72 9.82-33.843 16.686-71.291 20.141-109.851 1.685-18.808 1.685-73.192 0-92-8.584-95.802-37.82-181.366-88.669-259.5-79.806-122.632-203.076-209.273-344.216-241.935C695.563 60.597 636.961 55.733 585 59.096m10 90.424c-1.375.199-9.025.883-17 1.52-16.391 1.308-44.104 5.626-60.5 9.426-6.05 1.402-12.012 2.78-13.25 3.061l-2.25.511v122.755l-9.75 3.733c-21.886 8.38-48.715 22.416-69.754 36.494-7.987 5.345-27.069 19.554-30.734 22.885-1.944 1.768 13.162 44.767 24.721 70.369C428.459 446.797 455 490.849 455 484.202c0-1.485 17.136-31.633 23.703-41.702 32.654-50.064 78.681-96.569 132.297-133.669 32.471-22.47 73.953-45.192 112-61.349l14.5-6.158.262-38.494.261-38.494-16.261-3.666c-35.276-7.951-58.384-10.624-96.262-11.135-15.4-.208-29.125-.215-30.5-.015m132.817 149.243c-28.798 31.64-48.497 59.623-67.421 95.774l-7.376 14.091 27.24-.008c43.104-.014 77.514 4.685 120.24 16.422 64.042 17.593 131.095 51.357 191.256 96.307 7.841 5.858 14.697 10.651 15.237 10.651.788 0 64.448-36.34 65.919-37.63 1.549-1.357-14.662-47.783-23.873-68.37-20.731-46.337-51.254-92.1-84.173-126.203l-9.366-9.703-52.5 30.442c-28.875 16.743-52.781 30.447-53.125 30.453-.344.006-4.553-3.156-9.353-7.028-25.557-20.613-57.138-39.058-88.353-51.603-7.332-2.947-13.407-5.352-13.5-5.345-.093.007-4.976 5.295-10.852 11.75m-453.955 2.494C226.411 352.424 191.997 411.6 171.365 477.5c-2.411 7.7-4.492 14.59-4.624 15.311-.144.785 20.836 13.491 52.259 31.651l52.5 30.34-.114 4.349c-.063 2.392-.894 9.749-1.847 16.349-2.246 15.549-3.17 56.604-1.654 73.5.617 6.875 1.862 17.507 2.768 23.628l1.645 11.127 13.802 3.127c16.284 3.69 32.466 6.465 50.4 8.641 15.902 1.931 54.475 3.016 71.696 2.018l12.695-.736-5.122-8.153c-28.916-46.017-48.35-94.501-60.187-150.152-12.664-59.542-14.851-130.954-6.077-198.422.817-6.281 1.375-11.497 1.24-11.589-.135-.092-13.745-7.939-30.245-17.438-16.5-9.499-31.398-18.118-33.106-19.153l-3.106-1.883-10.426 11.242m551.554 241.602l-6.084.641 7.848 12.5c9.853 15.694 26.772 49.277 33.755 67 32.285 81.945 42.311 175.591 29.655 277-.789 6.325-1.132 11.626-.762 11.78.369.154 15.297 8.801 33.172 19.215l32.5 18.935 8.775-9.215c47.508-49.887 83.786-112.031 104.76-179.452l4.74-15.237-11.137-6.455c-6.126-3.55-29.813-17.245-52.638-30.433l-41.5-23.979.125-4.329c.069-2.382.888-9.505 1.821-15.83 1.09-7.392 1.886-20.966 2.227-38 .528-26.334-.301-40.351-3.734-63.146-1.064-7.067-1.352-7.689-3.795-8.212-1.454-.311-7.594-1.696-13.644-3.077-13.34-3.047-30.567-5.961-48-8.121-13.756-1.704-66.752-2.78-78.084-1.585m-297.728 28.643c-16.871 4.637-30.18 17.746-35.46 34.925-2.024 6.584-2.024 20.562 0 27.146 5.205 16.934 16.867 28.811 33.462 34.082 14.153 4.494 30.128 2.219 42.614-6.069 29.343-19.477 29.343-63.695 0-83.172-11.372-7.548-28.005-10.379-40.616-6.912m156.718.886c-39.753 12.88-47.351 66.205-12.71 89.198 16.65 11.052 38.976 11.04 55.653-.03 14.134-9.381 21.983-24.219 21.983-41.556 0-14.233-4.79-25.763-14.748-35.5-13.559-13.26-32.514-17.835-50.178-12.112M199.5 726.681c-17.6 10.204-32.193 18.73-32.429 18.948-.74.683 6.945 25.197 12.97 41.371 21.176 56.848 55.415 111.989 95.12 153.191l9.339 9.691L337 919.45c28.875-16.738 52.793-30.437 53.15-30.442.358-.004 4.183 2.817 8.5 6.269 27.45 21.95 61.741 41.902 92.252 53.677l10.403 4.014 7.702-8.234c28.975-30.977 51.278-62.365 70.761-99.585l7.541-14.405-16.404.7c-38.361 1.638-82.781-3.749-127.405-15.45-64.33-16.869-134.171-51.725-195.657-97.646-7.62-5.691-14.415-10.319-15.099-10.284-.684.036-15.644 8.413-33.244 18.617m583.104 34.069c-4.181 8.546-13.978 25.423-21.335 36.75C724.787 853.672 670.806 905.641 608 945.058c-25.599 16.066-60.655 34.392-89.5 46.789l-16 6.877-.262 38.444-.261 38.445 16.261 3.689c36.838 8.356 61.139 11.026 101.262 11.124 39.017.096 68.057-3.008 102.943-11.002 8.219-1.883 15.081-3.424 15.25-3.424.169 0 .307-27.613.307-61.362v-61.363l10.75-4.237c23.336-9.197 47.733-21.993 68.754-36.058 8.07-5.401 27.187-19.644 30.788-22.939.435-.398-1.291-7.433-3.836-15.633-12.487-40.229-30.552-78.506-52.943-112.18-2.644-3.975-5.097-7.228-5.451-7.228-.355 0-1.911 2.587-3.458 5.75" fill="undefined" fill-rule="evenodd"/></svg>