<svg xmlns="http://www.w3.org/2000/svg" width="1240" height="1240"><path d="M585.5 119.157c-24.392 1.775-55.454 6.582-80.743 12.495l-10.743 2.512-.257 65.522-.257 65.523-12.5 4.911c-24.453 9.608-54.301 25.574-75.692 40.488-14.402 10.041-29.52 22.393-29.025 23.713.243.648 1.692 5.443 3.22 10.655 11.868 40.48 32.267 84.639 55.173 119.442l8.503 12.917 6.683-12.417c23.502-43.672 46.807-74.722 84.066-112.002 25.738-25.754 47.825-44.173 78.072-65.109 33.386-23.108 77-46.934 117.761-64.332l16.261-6.94-.261-40.974-.261-40.973-4.5-1.319c-8.958-2.625-43.862-9.169-59.5-11.155-31.749-4.032-66.513-5.102-96-2.957M734.906 277.25c-22.472 24.627-42.334 51.05-58.443 77.75-5.099 8.45-21.464 39.014-21.462 40.083 0 .229 14.287.445 31.75.479 33.627.065 45.612 1.017 75.303 5.978 85.759 14.331 172.63 53.33 254.813 114.394l15.221 11.31 25.706-14.808c14.138-8.144 30.112-17.312 35.497-20.372l9.79-5.564-.61-3.5c-1.096-6.29-14.149-44.185-19.977-58-17.139-40.622-35.248-72.077-61.599-107-11.686-15.488-30.818-37.844-39.039-45.62l-4.356-4.119-55 31.858c-30.25 17.522-55.747 32.106-56.66 32.408-1.079.358-4.75-1.93-10.5-6.543-20.084-16.116-40.545-29.274-64.607-41.547C777.601 277.739 748.585 265 746.461 265c-.207 0-5.407 5.512-11.555 12.25m-483.911 2.889c-52.729 57.452-89.592 121.745-111.254 194.044l-3.501 11.683 56.707 32.735 56.706 32.734-1.326 7.583c-4.069 23.272-5.894 57.248-4.381 81.582.926 14.898 4.591 46.254 5.526 47.28.898.986 34.289 8.122 48.028 10.264 28.958 4.515 64.488 6.499 90.867 5.074 10.377-.56 19.07-1.222 19.319-1.471.248-.248-2.035-4.306-5.074-9.017-37.96-58.843-62.879-131.564-72.005-210.13-3.219-27.711-3.869-43.866-3.307-82.149.534-36.338 1.631-53.441 5.12-79.832.798-6.039 1.368-11.04 1.266-11.112-.102-.073-15.261-8.815-33.686-19.427-18.425-10.613-34.464-19.919-35.642-20.682-2.027-1.312-2.739-.735-13.363 10.841M606.5 522.653c-25.669 4.073-49.712 18.357-64.437 38.283-12.956 17.531-18.769 33.768-19.713 55.064-1.087 24.502 5.901 45.6 21.676 65.452 13.091 16.473 32.315 28.634 53.974 34.141 10.222 2.599 34.507 2.629 44 .054 24.469-6.637 42.328-18.418 56.253-37.107 8.576-11.511 13.261-21.347 17.403-36.54 2.782-10.202 2.502-34.762-.523-46-4.654-17.286-13.403-32.422-26.057-45.076-18.639-18.639-40.322-27.911-66.576-28.47-7.15-.152-14.35-.062-16 .199m243.676 14.396c-9.529.421-17.487.928-17.685 1.126-.198.198 3.43 6.427 8.061 13.843 9.872 15.805 25.076 45.255 32.515 62.982 17.89 42.628 30.726 92.267 36.33 140.5 5.776 49.707 5.41 110.661-.955 158.936-.793 6.015-1.442 12.144-1.442 13.62 0 2.476 2.712 4.248 35.027 22.888 19.264 11.113 35.44 20.059 35.946 19.88.506-.178 5.205-4.957 10.444-10.619 40.968-44.285 71.417-91.321 94.113-145.385 7.518-17.906 21.003-57.989 20.208-60.062-.302-.785-25.229-15.681-55.393-33.103-30.165-17.421-55.37-32.011-56.011-32.422-.843-.54-.908-2.132-.233-5.74 6.158-32.924 6.854-78.418 1.771-115.688l-2.141-15.695-10.616-2.49c-29.261-6.862-56.983-10.974-81.615-12.105-25.026-1.149-31.483-1.212-48.324-.466M173.193 732.877c-18.869 10.91-34.771 20.301-35.338 20.868-.708.708.416 5.685 3.59 15.893 22.372 71.955 57.534 133.26 108.468 189.112 6.144 6.737 11.715 12.235 12.379 12.217.665-.019 26.402-14.607 57.195-32.419l55.987-32.386 5.013 4.231c28.719 24.239 69.849 48.122 106.705 61.961l6.691 2.512 11.972-13.183c14.282-15.727 20.74-23.512 31.675-38.183 15.78-21.171 34.174-51.134 42.972-70l4.197-9-32.6-.072c-33.662-.073-44.236-.877-72.599-5.517-52.086-8.52-104.017-26.026-157-52.926-34.47-17.5-69.941-39.589-100.682-62.699-7.525-5.657-13.825-10.277-14-10.266-.175.011-15.756 8.946-34.625 19.857M791.52 772.25c-22.058 42.207-48.977 78.371-85.449 114.795-38.124 38.072-77.236 67.416-127.546 95.69-17.969 10.099-51.743 26.686-70.775 34.76l-13.75 5.834v82.327l13.75 3.194c23.233 5.395 43.059 8.689 68.25 11.336 16.09 1.691 73.361 1.705 89 .021 25.772-2.774 47.439-6.375 68.25-11.344l12.75-3.045V974.95l2.75-1.001c20.982-7.643 52.157-22.755 69.847-33.859 18.882-11.852 45.274-31.559 45.357-33.868.102-2.831-15.119-46.644-20.841-59.99-7.171-16.726-16.651-35.878-24.655-49.808-6.712-11.68-20.708-33.401-21.531-33.415-.315-.005-2.748 4.154-5.407 9.241" fill="#42a5f5" fill-rule="evenodd"/></svg>