<svg width="1031" height="1160" viewBox="0 0 1031 1160" fill="none" xmlns="http://www.w3.org/2000/svg">
<path d="M719.402 421.639C719.402 482.627 669.899 532.068 608.835 532.068C547.77 532.068 498.268 482.627 498.268 421.639C498.268 360.65 547.77 311.21 608.835 311.21C669.899 311.21 719.402 360.65 719.402 421.639Z" fill="#FFC131"/>
<ellipse cx="422.881" cy="737.868" rx="110.567" ry="110.429" transform="rotate(180 422.881 737.868)" fill="#24C8DB"/>
<path fill-rule="evenodd" clip-rule="evenodd" d="M837.988 775.756C793.369 804.557 743.929 824.55 692.336 834.948C702.897 804.535 708.634 771.87 708.634 737.868C708.634 725.534 707.879 713.377 706.413 701.439C728.612 693.717 749.922 683.35 769.862 670.478C817.843 639.506 855.85 595.356 879.315 543.332C902.78 491.308 910.705 433.623 902.138 377.21C893.571 320.796 868.877 268.052 831.022 225.317C793.167 182.582 743.762 151.672 688.744 136.303C633.725 120.933 575.433 121.757 520.872 138.676C466.311 155.595 417.802 187.889 381.173 231.677C376.482 237.286 372.011 243.053 367.766 248.964C311.242 255.236 256.497 271.213 205.87 295.928C222.349 243.238 249.104 194.05 284.856 151.309C336.981 88.995 406.013 43.0386 483.657 18.9618C561.302 -5.11495 644.255 -6.28777 722.551 15.5843C800.846 37.4563 871.153 81.4428 925.024 142.258C978.894 203.074 1014.04 278.132 1026.23 358.413C1038.42 438.694 1027.14 520.783 993.748 594.817C960.355 668.851 906.269 731.681 837.988 775.756ZM210.897 372.824L314.391 385.519C316.854 365.485 321.349 345.853 327.75 326.907C286.703 336.315 247.312 351.802 210.897 372.824Z" fill="#FFC131"/>
<path fill-rule="evenodd" clip-rule="evenodd" d="M193.012 383.751C237.967 354.733 287.815 334.657 339.828 324.326C328.07 356.219 321.65 390.69 321.65 426.658C321.65 437.417 322.224 448.041 323.344 458.503C301.593 466.178 280.706 476.397 261.139 489.028C213.157 520 175.151 564.15 151.686 616.174C128.221 668.198 120.296 725.883 128.862 782.297C137.429 838.711 162.124 891.454 199.979 934.189C237.833 976.925 287.238 1007.83 342.257 1023.2C397.276 1038.57 455.568 1037.75 510.129 1020.83C564.69 1003.91 613.199 971.618 649.827 927.829C654.542 922.193 659.035 916.396 663.299 910.454C719.87 904.084 774.634 887.999 825.26 863.164C808.792 916.01 781.991 965.345 746.145 1008.2C694.02 1070.51 624.988 1116.47 547.344 1140.54C469.699 1164.62 386.745 1165.79 308.45 1143.92C230.154 1122.05 159.847 1078.06 105.977 1017.25C52.1069 956.432 16.9648 881.375 4.7736 801.094C-7.41765 720.813 3.8605 638.723 37.2529 564.689C70.6453 490.655 124.731 427.826 193.012 383.751ZM819.512 786.61L819.511 786.61C817.651 787.684 815.784 788.744 813.908 789.79C815.783 788.745 817.651 787.685 819.512 786.61ZM720.192 828.148C714.594 829.688 708.966 831.111 703.312 832.418C703.312 832.419 703.312 832.419 703.312 832.419C708.972 831.111 714.599 829.686 720.192 828.148Z" fill="#24C8DB"/>
</svg>
