<svg width="1031" height="1160" fill="none" xmlns="http://www.w3.org/2000/svg"><path d="M719.4 421.6a110.5 110.5 0 11-221-.1 110.5 110.5 0 01221 .1z" fill="#FFC131"/><ellipse cx="422.9" cy="737.9" rx="110.6" ry="110.4" transform="rotate(180 422.9 737.9)" fill="#24C8DB"/><path fill-rule="evenodd" clip-rule="evenodd" d="M838 775.8a422.5 422.5 0 01-145.7 59.1 295.4 295.4 0 0014.1-133.5 296.7 296.7 0 00173-158 296 296 0 00-190.7-407.1 297 297 0 00-321 112.7A493 493 0 00206 296 421.5 421.5 0 01483.7 19 422.7 422.7 0 01925 142.3a421.4 421.4 0 01-87 633.5zm-627.1-403l103.5 12.7c2.5-20 7-39.6 13.4-58.6-41.1 9.4-80.5 24.9-116.9 46z" fill="#FFC131"/><path fill-rule="evenodd" clip-rule="evenodd" d="M193 383.8c45-29 94.8-49.1 146.8-59.5a295.2 295.2 0 00-16.5 134.2 296.8 296.8 0 00-171.6 157.7 296 296 0 00190.6 407 297 297 0 00321-112.7 493 493 0 00162-47.3 421.5 421.5 0 01-278 277.3A422.7 422.7 0 01106 1017.2a421.4 421.4 0 0187-633.4zm626.5 402.8zm-99.3 41.5a422.2 422.2 0 000 0z" fill="#24C8DB"/></svg>