<svg class="crabnebula-logo" width="100%" height="100%" viewBox="0 0 1204 210" version="1.1"
    xmlns="http://www.w3.org/2000/svg" xmlns:xlink="http://www.w3.org/1999/xlink"
    xml:space="preserve" xmlns:serif="http://www.serif.com/"
    style="fill-rule:evenodd;clip-rule:evenodd;stroke-linejoin:round;stroke-miterlimit:2;">
    <style>
        .crabnebula-logo path, 
        .crabnebula-logo rect {
            fill: #001e42;
        }
        @media (prefers-color-scheme: dark) {
            .crabnebula-logo path, .crabnebula-logo rect {
                fill: #fff;
            }
        }
        html[data-color-mode="dark"] .crabnebula-logo path, 
        html[data-color-mode="dark"] .crabnebula-logo rect {
            fill: #fff;
        }
    </style>
    <path d="M351.903,162.334C344.288,162.334 337.123,160.881 330.41,157.975C323.696,155.069 317.834,151.11 312.824,146.099C307.914,141.089 304.006,135.276 301.101,128.662C298.195,121.948 296.742,114.783 296.742,107.167C296.742,99.55 298.195,92.435 301.101,85.821C304.006,79.107 307.914,73.244 312.824,68.234C317.834,63.223 323.696,59.265 330.41,56.358C337.123,53.452 344.288,51.999 351.903,51.999C357.414,51.999 362.675,52.701 367.685,54.103C372.795,55.507 377.455,57.511 381.663,60.116C385.972,62.622 389.83,65.678 393.237,69.286C396.644,72.793 399.499,76.752 401.804,81.161L380.762,92.586C377.756,87.174 373.848,82.915 369.038,79.808C364.328,76.702 358.617,75.148 351.903,75.148C347.494,75.148 343.386,76 339.578,77.704C335.871,79.407 332.614,81.762 329.809,84.769C327.003,87.675 324.798,91.082 323.195,94.991C321.592,98.799 320.79,102.857 320.79,107.167C320.79,111.476 321.592,115.584 323.195,119.493C324.798,123.301 327.003,126.708 329.809,129.715C332.614,132.621 335.871,134.926 339.578,136.629C343.386,138.333 347.494,139.185 351.903,139.185C358.617,139.185 364.328,137.631 369.038,134.525C373.848,131.418 377.756,127.159 380.762,121.748L401.804,133.172C399.499,137.581 396.644,141.59 393.237,145.198C389.83,148.705 385.972,151.762 381.663,154.367C377.455,156.872 372.795,158.827 367.685,160.23C362.675,161.633 357.414,162.334 351.903,162.334Z" style="fill-rule:nonzero;stroke:black;stroke-width:0.55px;"/>
    <path d="M413.821,85.37L436.517,85.37L436.517,96.644C437.72,93.337 439.924,90.481 443.131,88.076C446.437,85.671 450.195,84.468 454.403,84.468C455.506,84.468 456.658,84.518 457.86,84.619C459.063,84.719 460.366,84.969 461.768,85.37L461.768,108.369C460.065,107.768 458.412,107.317 456.808,107.016C455.205,106.716 453.502,106.565 451.698,106.565C446.788,106.565 443.03,108.269 440.425,111.676C437.82,115.083 436.517,119.493 436.517,124.904L436.517,160.53L413.821,160.53L413.821,85.37Z" style="fill-rule:nonzero;stroke:black;stroke-width:0.55px;"/>
    <path d="M502.161,162.184C497.251,162.184 492.642,161.132 488.333,159.027C484.125,156.923 480.467,154.117 477.361,150.609C474.255,147.001 471.8,142.843 469.996,138.133C468.193,133.322 467.291,128.261 467.291,122.95C467.291,117.639 468.193,112.628 469.996,107.918C471.8,103.108 474.255,98.949 477.361,95.442C480.467,91.834 484.125,88.978 488.333,86.873C492.642,84.769 497.251,83.717 502.161,83.717C504.666,83.717 506.971,84.017 509.075,84.619C511.28,85.12 513.234,85.821 514.937,86.723C516.741,87.625 518.244,88.627 519.446,89.729C520.749,90.832 521.801,91.884 522.603,92.886L522.603,85.37L545.299,85.37L545.299,160.53L522.603,160.53L522.603,153.014C521.801,154.016 520.749,155.069 519.446,156.171C518.244,157.273 516.741,158.275 514.937,159.177C513.234,160.079 511.28,160.781 509.075,161.282C506.971,161.883 504.666,162.184 502.161,162.184ZM507.272,141.59C512.382,141.59 516.49,139.836 519.597,136.329C522.803,132.821 524.406,128.362 524.406,122.95C524.406,117.539 522.803,113.079 519.597,109.572C516.49,106.064 512.382,104.31 507.272,104.31C502.161,104.31 498.003,106.064 494.796,109.572C491.69,113.079 490.137,117.539 490.137,122.95C490.137,128.362 491.69,132.821 494.796,136.329C498.003,139.836 502.161,141.59 507.272,141.59Z" style="fill-rule:nonzero;stroke:black;stroke-width:0.55px;"/>
    <path d="M607.116,162.184C604.611,162.184 602.256,161.883 600.051,161.282C597.947,160.781 595.993,160.079 594.19,159.177C592.486,158.275 590.983,157.273 589.681,156.171C588.378,155.069 587.376,154.016 586.674,153.014L586.674,160.53L563.979,160.53L563.979,47.79L586.674,47.79L586.674,92.886C587.376,91.884 588.378,90.832 589.681,89.729C590.983,88.627 592.486,87.625 594.19,86.723C595.993,85.821 597.947,85.12 600.051,84.619C602.256,84.017 604.611,83.717 607.116,83.717C612.026,83.717 616.585,84.769 620.793,86.873C625.102,88.978 628.81,91.834 631.916,95.442C635.022,98.949 637.477,103.108 639.281,107.918C641.084,112.628 641.986,117.639 641.986,122.95C641.986,128.261 641.084,133.322 639.281,138.133C637.477,142.843 635.022,147.001 631.916,150.609C628.81,154.117 625.102,156.923 620.793,159.027C616.585,161.132 612.026,162.184 607.116,162.184ZM602.005,141.59C607.116,141.59 611.224,139.836 614.33,136.329C617.537,132.821 619.14,128.362 619.14,122.95C619.14,117.539 617.537,113.079 614.33,109.572C611.224,106.064 607.116,104.31 602.005,104.31C596.895,104.31 592.737,106.064 589.53,109.572C586.424,113.079 584.871,117.539 584.871,122.95C584.871,128.362 586.424,132.821 589.53,136.329C592.737,139.836 596.895,141.59 602.005,141.59Z" style="fill-rule:nonzero;stroke:black;stroke-width:0.55px;"/>
    <path d="M732.106,160.53L680.101,94.54L680.101,160.53L656.203,160.53L656.203,53.803L676.795,53.803L728.649,119.793L728.649,53.803L752.698,53.803L752.698,160.53L732.106,160.53Z" style="fill-rule:nonzero;stroke:black;stroke-width:0.55px;"/>
    <path d="M806.852,162.184C801.341,162.184 796.13,161.282 791.22,159.478C786.411,157.674 782.202,155.069 778.595,151.661C774.988,148.254 772.132,144.145 770.028,139.335C767.923,134.425 766.871,128.963 766.871,122.95C766.871,117.338 767.823,112.177 769.727,107.467C771.731,102.657 774.487,98.498 777.994,94.991C781.601,91.483 785.809,88.727 790.619,86.723C795.429,84.719 800.69,83.717 806.401,83.717C811.311,83.717 816.021,84.518 820.53,86.122C825.139,87.625 829.147,89.93 832.554,93.036C835.961,96.043 838.666,99.851 840.67,104.461C842.775,108.97 843.827,114.282 843.827,120.395C843.827,121.397 843.777,122.549 843.677,123.852C843.677,125.055 843.576,126.558 843.376,128.362L788.816,128.362C789.517,132.871 791.671,136.228 795.279,138.433C798.886,140.538 802.844,141.59 807.153,141.59C811.562,141.59 815.319,140.738 818.425,139.034C821.632,137.231 823.937,135.226 825.339,133.022L842.173,145.649C838.666,150.659 833.857,154.668 827.744,157.674C821.732,160.681 814.768,162.184 806.852,162.184ZM821.281,113.48C820.279,109.471 818.275,106.615 815.269,104.912C812.263,103.108 809.107,102.206 805.8,102.206C804.096,102.206 802.393,102.406 800.69,102.807C798.986,103.208 797.383,103.859 795.88,104.761C794.377,105.663 793.024,106.816 791.822,108.219C790.719,109.622 789.918,111.376 789.417,113.48L821.281,113.48Z" style="fill-rule:nonzero;stroke:black;stroke-width:0.55px;"/>
    <path d="M901.265,162.184C898.76,162.184 896.405,161.883 894.201,161.282C892.097,160.781 890.143,160.079 888.339,159.177C886.636,158.275 885.133,157.273 883.83,156.171C882.527,155.069 881.525,154.016 880.824,153.014L880.824,160.53L858.128,160.53L858.128,47.79L880.824,47.79L880.824,92.886C881.525,91.884 882.527,90.832 883.83,89.729C885.133,88.627 886.636,87.625 888.339,86.723C890.143,85.821 892.097,85.12 894.201,84.619C896.405,84.017 898.76,83.717 901.265,83.717C906.175,83.717 910.734,84.769 914.943,86.873C919.252,88.978 922.959,91.834 926.065,95.442C929.172,98.949 931.627,103.108 933.43,107.918C935.234,112.628 936.136,117.639 936.136,122.95C936.136,128.261 935.234,133.322 933.43,138.133C931.627,142.843 929.172,147.001 926.065,150.609C922.959,154.117 919.252,156.923 914.943,159.027C910.734,161.132 906.175,162.184 901.265,162.184ZM896.155,141.59C901.265,141.59 905.374,139.836 908.48,136.329C911.686,132.821 913.29,128.362 913.29,122.95C913.29,117.539 911.686,113.079 908.48,109.572C905.374,106.064 901.265,104.31 896.155,104.31C891.045,104.31 886.886,106.064 883.68,109.572C880.573,113.079 879.02,117.539 879.02,122.95C879.02,128.362 880.573,132.821 883.68,136.329C886.886,139.836 891.045,141.59 896.155,141.59Z" style="fill-rule:nonzero;stroke:black;stroke-width:0.55px;"/>
    <path d="M977.812,162.184C968.493,162.184 961.429,159.077 956.619,152.864C951.81,146.651 949.405,138.433 949.405,128.211L949.405,85.37L972.101,85.37L972.101,124.303C972.101,129.815 972.952,134.074 974.656,137.08C976.459,140.087 979.466,141.59 983.674,141.59C987.983,141.59 991.39,140.037 993.895,136.93C996.5,133.823 997.803,128.813 997.803,121.898L997.803,85.37L1020.5,85.37L1020.5,160.53L997.803,160.53L997.803,152.864C995.999,155.469 993.444,157.674 990.137,159.478C986.83,161.282 982.722,162.184 977.812,162.184Z" style="fill-rule:nonzero;stroke:black;stroke-width:0.55px;"/>
    <rect x="1039.11" y="47.79" width="22.701" height="112.74" style="fill-rule:nonzero;stroke:black;stroke-width:0.55px;"/>
    <path d="M1110.86,162.184C1105.95,162.184 1101.34,161.132 1097.03,159.027C1092.83,156.923 1089.17,154.117 1086.06,150.609C1082.96,147.001 1080.5,142.843 1078.7,138.133C1076.89,133.322 1075.99,128.261 1075.99,122.95C1075.99,117.639 1076.89,112.628 1078.7,107.918C1080.5,103.108 1082.96,98.949 1086.06,95.442C1089.17,91.834 1092.83,88.978 1097.03,86.873C1101.34,84.769 1105.95,83.717 1110.86,83.717C1113.37,83.717 1115.67,84.017 1117.78,84.619C1119.98,85.12 1121.94,85.821 1123.64,86.723C1125.44,87.625 1126.95,88.627 1128.15,89.729C1129.45,90.832 1130.5,91.884 1131.3,92.886L1131.3,85.37L1154,85.37L1154,160.53L1131.3,160.53L1131.3,153.014C1130.5,154.016 1129.45,155.069 1128.15,156.171C1126.95,157.273 1125.44,158.275 1123.64,159.177C1121.94,160.079 1119.98,160.781 1117.78,161.282C1115.67,161.883 1113.37,162.184 1110.86,162.184ZM1115.97,141.59C1121.08,141.59 1125.19,139.836 1128.3,136.329C1131.5,132.821 1133.11,128.362 1133.11,122.95C1133.11,117.539 1131.5,113.079 1128.3,109.572C1125.19,106.064 1121.08,104.31 1115.97,104.31C1110.86,104.31 1106.7,106.064 1103.5,109.572C1100.39,113.079 1098.84,117.539 1098.84,122.95C1098.84,128.362 1100.39,132.821 1103.5,136.329C1106.7,139.836 1110.86,141.59 1115.97,141.59Z" style="fill-rule:nonzero;stroke:black;stroke-width:0.55px;"/>
    <path d="M146.48,54.585C119.724,89.866 119.878,134.941 146.826,155.264C153.908,160.605 162.136,163.705 170.903,164.732C146.032,184.934 117.382,191.203 98.037,178.045C71.507,160 72.524,112.249 100.309,71.391C123.51,37.273 158.039,18.749 184.247,24.072C170.404,30.195 157.116,40.561 146.48,54.585ZM181.638,99.643C169.141,111.453 154.859,119.304 142.801,121.916C149.921,147.367 177.29,149.323 177.29,149.323C177.29,149.323 193.578,145.578 205.877,117.941C216.005,95.183 215.122,71.668 204.914,59.7C204.065,71.267 195.731,86.324 181.638,99.643Z" style="stroke:black;stroke-width:0.55px;"/>
</svg>