<svg id="Layer_1" data-name="Layer 1" xmlns="http://www.w3.org/2000/svg" viewBox="0 0 509.61 509.61"><defs><style>.cls-1{fill:#fefefe;}.cls-2{fill:#fdc133;}.cls-3{fill:#26c8da;}.cls-4{fill:#fdc134;}</style></defs><path class="cls-1" d="M1159.61,816.61H650V307h509.61ZM970.09,653.86c60-10,121.19-70.26,119.52-151.16C1088,426.91,1028.22,361.45,954,354.57,865.93,346.4,806.58,408.19,793.43,459a10.67,10.67,0,0,0,2.3-.12c17-4.85,33.94-9.62,50.83-14.72a15.91,15.91,0,0,0,7.1-4.78c25.54-30.16,57.78-43.49,97.2-39.31,60,6.34,103.85,66.23,91.66,125.47-7.65,37.13-29.06,63.25-63.58,78.88-2.53,1.15-5.44,4.49-5.71,7.07C971.76,625.49,971.07,639.54,970.09,653.86Zm44.39,14c-18.05,4.65-36.17,9.16-54.17,14.14-2.78.77-5.42,3.33-7.36,5.69a107.61,107.61,0,0,1-115.44,33.94c-41.11-12.9-70.76-50.41-74.2-93.83-3.37-42.65,20-84.35,59.05-103,9.22-4.39,12.09-9,11.87-19.11-.24-11.37,2.89-22.8,4.56-34.21-67,10.62-121,76.53-121.17,148-.21,74.67,55.24,139.45,129.15,150.86C920.42,781.7,991.81,737.83,1014.48,667.87ZM897.58,505.73c-.06,22,18.19,40.35,39.89,40.18,22-.17,40.12-18.41,40-40.23a39.95,39.95,0,0,0-79.89.05ZM870,659.57a39.63,39.63,0,1,0,.74-79.25c-22.46-.11-40.33,17.46-40.3,39.63A39.76,39.76,0,0,0,870,659.57Z" transform="translate(-650 -307)"/><path class="cls-2" d="M970.09,653.86c1-14.32,1.67-28.37,3.14-42.34.27-2.58,3.18-5.92,5.71-7.07,34.52-15.63,55.93-41.75,63.58-78.88,12.19-59.24-31.67-119.13-91.66-125.47-39.42-4.18-71.66,9.15-97.2,39.31a15.91,15.91,0,0,1-7.1,4.78c-16.89,5.1-33.87,9.87-50.83,14.72a10.67,10.67,0,0,1-2.3.12C806.58,408.19,865.93,346.4,954,354.57c74.21,6.88,134,72.34,135.6,148.13C1091.28,583.6,1030.05,643.82,970.09,653.86Z" transform="translate(-650 -307)"/><path class="cls-3" d="M1014.48,667.87c-22.67,70-94.06,113.83-167.71,102.46-73.91-11.41-129.36-76.19-129.15-150.86.2-71.42,54.18-137.33,121.16-148-1.66,11.41-4.79,22.84-4.55,34.21.22,10.11-2.65,14.72-11.87,19.11-39.06,18.62-62.42,60.32-59.05,103,3.44,43.42,33.09,80.93,74.2,93.83A107.61,107.61,0,0,0,953,687.7c1.94-2.36,4.58-4.92,7.36-5.69C978.31,677,996.43,672.52,1014.48,667.87Z" transform="translate(-650 -307)"/><path class="cls-4" d="M897.58,505.73a39.95,39.95,0,0,1,79.89-.05c.12,21.82-18,40.06-40,40.23C915.77,546.08,897.52,527.7,897.58,505.73Z" transform="translate(-650 -307)"/><path class="cls-3" d="M870,659.57A39.76,39.76,0,0,1,830.45,620c0-22.17,17.84-39.74,40.3-39.63a39.63,39.63,0,1,1-.74,79.25Z" transform="translate(-650 -307)"/></svg>