<svg clip-rule="evenodd" fill-rule="evenodd" stroke-linejoin="round" stroke-miterlimit="2" version="1.1" viewBox="0 0 496.52802 146.992" xml:space="preserve" xmlns="http://www.w3.org/2000/svg">
    <g transform="translate(-558.0635,-156.504)"><g transform="translate(-92.0085,72.055)">
                <path d="m710.873 220.019c0 5.604-3.502 8.405-10.506 8.405-6.887 0-10.331-2.801-10.331-8.405v-114.342h-30.643c-4.203 0-6.421-2.977-6.654-8.93 0-5.837 2.218-8.756 6.654-8.756h82.123c4.436 0 6.538 2.919 6.304 8.756 0 5.953-2.101 8.93-6.304 8.93h-30.643z" fill="#fff" fill-rule="nonzero"/>
                <path d="m741.516 85.325c2.544 0 4.524 0.755 5.997 2.094 1.984 1.804 3.143 4.881 2.973 9.379l-3e-3 0.369c-0.093 3.733-0.99 7.993-4.455 10.042-0.556 0.328-1.153 0.583-1.772 0.765-0.892 0.261-30.2662 0.1428-31.1932 0.1528l0.4772 111.8922c-0.011 1.274-0.149 2.543-0.523 3.765-0.243 0.792-0.579 1.556-1.014 2.261-2.686 4.362-8.323 5.274-13.043 5.007-3.331-0.188-6.858-1.137-9.136-3.731-1.777-2.022-2.432-4.661-2.455-7.302v-111.675h-27.976c-2.428 0-4.375-0.749-5.886-2.124-1.975-1.799-3.256-4.873-3.433-9.369l-2e-3 -0.104c0-4.494 1.255-7.562 3.304-9.359 1.51-1.326 3.499-2.063 6.017-2.063zm0 20.352c4.203 0 6.304-2.977 6.304-8.93 0.234-5.837-1.868-8.756-6.304-8.756h-82.123c-4.436 0-6.654 2.919-6.654 8.756 0.233 5.953 2.451 8.93 6.654 8.93h30.643v114.342c0 5.604 3.444 8.405 10.331 8.405 7.004 0 10.506-2.801 10.506-8.405v-114.342z"/>
            </g><path d="m717.3435 177.207-38.347 117.669v-0.175c-0.701 1.751-1.693 3.21-2.977 4.377-1.167 1.051-2.626 1.576-4.378 1.576-0.933 0-1.867-0.116-2.801-0.35-0.817-0.117-1.693-0.292-2.627-0.525h0.175c-6.654-2.101-9.105-5.837-7.354-11.207l39.923-121.346c0.584-1.868 1.576-3.444 2.977-4.728 1.518-1.284 3.269-2.043 5.253-2.276 1.985-0.351 3.911-0.584 5.779-0.701 1.868-0.233 3.327-0.35 4.377-0.35 1.051 0 2.51 0.117 4.378 0.35 1.868 0.117 3.794 0.292 5.778 0.525 1.635 0.234 3.211 1.109 4.728 2.627 1.634 1.518 2.86 3.035 3.677 4.553 6.537 20.078 13.133 40.332 19.787 60.76 6.771 20.312 13.425 40.508 19.962 60.586 1.634 5.37-0.817 9.106-7.355 11.207-0.933 0.233-1.809 0.408-2.626 0.525-0.701 0.234-1.518 0.35-2.452 0.35-1.634 0-3.151-0.525-4.552-1.576-1.284-1.167-2.218-2.626-2.802-4.377v0.175z" fill="#fff" fill-rule="nonzero"/><path d="m712.7135 156.866c1.971-0.245 3.515-0.362 4.63-0.362s2.656 0.117 4.625 0.361c1.889 0.119 3.837 0.297 5.843 0.533 0.022 3e-3 0.044 5e-3 0.065 9e-3 2.132 0.304 4.222 1.377 6.202 3.346 1.86 1.732 3.241 3.476 4.174 5.208l0.188 0.439c6.537 20.078 13.133 40.332 19.781 60.743 6.772 20.318 13.428 40.519 19.983 60.653 0.858 2.82 0.781 5.297-0.077 7.431-1.221 3.034-4.13 5.521-9.013 7.091-0.055 0.018-0.112 0.034-0.169 0.048-0.946 0.236-1.837 0.418-2.674 0.545-0.886 0.265-1.902 0.41-3.051 0.41-2.206 0-4.261-0.691-6.152-2.109-0.067-0.051-0.132-0.104-0.194-0.16-15.82378-33.51193-39.49183-114.69811-39.49183-114.69811s-27.39519 86.12777-35.85117 109.34811c-0.094 0.268-0.217 0.511-0.379 0.744l-0.011 0.014c-0.832 1.807-1.947 3.336-3.338 4.601-1.647 1.482-3.692 2.26-6.162 2.26-1.1 0-2.201-0.131-3.302-0.396-0.865-0.127-1.79-0.313-2.772-0.559-0.249-0.062-0.482-0.158-0.694-0.281-4.542-1.578-7.257-3.982-8.402-6.87-0.85-2.145-0.897-4.635 0.028-7.469 0-3e-3 1e-3 -5e-3 2e-3 -7e-3 0 0 39.923-121.347 39.911-121.309 0.729-2.331 1.972-4.295 3.72-5.898 0.026-0.024 0.053-0.047 0.08-0.07 1.905-1.612 4.099-2.572 6.584-2.879 2.03-0.356 4.003-0.595 5.917-0.717zm4.63 20.341-38.347 117.669v-0.175c-0.701 1.751-1.693 3.21-2.977 4.377-1.167 1.051-2.626 1.576-4.378 1.576-0.933 0-1.867-0.116-2.801-0.35-0.817-0.117-1.693-0.292-2.627-0.525h0.175c-6.654-2.101-9.105-5.837-7.354-11.207l39.923-121.346c0.584-1.868 1.576-3.444 2.977-4.728 1.518-1.284 3.269-2.043 5.253-2.276 1.985-0.351 3.911-0.584 5.779-0.701 1.868-0.233 3.327-0.35 4.377-0.35 1.051 0 2.51 0.117 4.378 0.35 1.868 0.117 3.794 0.292 5.778 0.525 1.635 0.234 3.211 1.109 4.728 2.627 1.634 1.518 2.86 3.035 3.677 4.553 6.537 20.078 13.133 40.332 19.787 60.76 6.771 20.312 13.425 40.508 19.962 60.586 1.634 5.37-0.817 9.106-7.355 11.207-0.933 0.233-1.809 0.408-2.626 0.525-0.701 0.234-1.518 0.35-2.452 0.35-1.634 0-3.151-0.525-4.552-1.576-1.284-1.167-2.218-2.626-2.802-4.377v0.175z"/><g transform="translate(-92.0085,72.055)">
                <path d="m977.722 199.007c0 9.455-3.151 16.518-9.455 21.187-3.035 2.218-6.187 3.969-9.456 5.254-3.152 1.167-6.245 1.751-9.28 1.751h-38.173c-3.035 0-6.187-0.584-9.455-1.751-3.152-1.285-6.246-3.036-9.281-5.254-3.035-2.334-5.37-5.194-7.004-8.58-1.634-3.502-2.451-7.704-2.451-12.607v-103.486c0-5.603 3.443-8.405 10.331-8.405 7.004 0 10.506 2.802 10.506 8.405v102.085c0 3.035 0.876 5.778 2.627 8.23 1.751 2.451 4.786 3.677 9.105 3.677h29.417c4.319 0 7.355-1.226 9.106-3.677 1.751-2.452 2.626-5.195 2.626-8.23v-102.085c0-5.603 3.444-8.405 10.331-8.405 7.004 0 10.506 2.802 10.506 8.405z" fill="#fff" fill-rule="nonzero"/>
                <path d="m949.531 229.865h-38.173c-3.322 0-6.774-0.628-10.352-1.906l-0.109-0.042c-3.344-1.362-6.628-3.216-9.901-5.609-3.372-2.594-5.964-5.773-7.794-9.566-1.782-3.817-2.702-8.391-2.702-13.735v-103.486c0-2.956 0.804-5.296 2.257-7.069 2.062-2.516 5.587-4.003 10.741-4.003 5.217 0 8.787 1.482 10.874 3.986 1.481 1.777 2.299 4.123 2.299 7.086v102.085c0 2.463 0.708 4.69 2.13 6.68 1.318 1.846 3.683 2.56 6.935 2.56h29.417c3.252 0 5.617-0.714 6.936-2.56 1.421-1.99 2.13-4.217 2.13-6.68v-102.085c0-2.956 0.803-5.296 2.257-7.07 2.061-2.515 5.586-4.002 10.74-4.002 5.217 0 8.787 1.482 10.874 3.986 1.481 1.777 2.299 4.123 2.299 7.086v103.486c0 10.432-3.58 18.178-10.549 23.34-3.226 2.358-6.579 4.217-10.102 5.601-3.466 1.284-6.87 1.917-10.207 1.917zm0-2.666c3.035 0 6.128-0.584 9.28-1.751 3.269-1.285 6.421-3.036 9.456-5.254 6.304-4.669 9.455-11.732 9.455-21.187v-103.486c0-5.603-3.502-8.405-10.506-8.405-6.887 0-10.331 2.802-10.331 8.405v102.085c0 3.035-0.875 5.778-2.626 8.23-1.751 2.451-4.787 3.677-9.106 3.677h-29.417c-4.319 0-7.354-1.226-9.105-3.677-1.751-2.452-2.627-5.195-2.627-8.23v-102.085c0-5.603-3.502-8.405-10.506-8.405-6.888 0-10.331 2.802-10.331 8.405v103.486c0 4.903 0.817 9.105 2.451 12.607 1.634 3.386 3.969 6.246 7.004 8.58 3.035 2.218 6.129 3.969 9.281 5.254 3.268 1.167 6.42 1.751 9.455 1.751z"/>
            </g><g transform="translate(-92.0085,72.055)">
                <path d="m1053.96 169.414h-13.48c-1.98 0-3.56-0.758-4.73-2.276-1.05-1.634-1.57-3.794-1.57-6.479 0-5.953 2.45-8.93 7.35-8.93h20.49c4.32 0 7.35-1.226 9.1-3.677 1.76-2.452 2.63-5.137 2.63-8.055v-22.588c0-2.919-0.87-5.604-2.63-8.055-1.75-2.451-4.78-3.677-9.1-3.677h-36.95v114.167c0 5.604-3.44 8.405-10.33 8.405s-10.33-2.801-10.33-8.405v-121.346c0-4.203 1.05-7.005 3.15-8.405 2.22-1.401 4.85-2.102 7.88-2.102h50.96c3.03 0 6.18 0.642 9.45 1.927 3.27 1.284 6.42 2.918 9.46 4.902h-0.18c3.04 2.218 5.37 5.137 7.01 8.756 1.63 3.502 2.45 7.587 2.45 12.257v25.565c0 9.456-3.15 16.518-9.46 21.187-1.28 0.934-2.68 1.81-4.2 2.627-1.4 0.817-2.86 1.634-4.38 2.451l28.02 46.228c0.35 0.583 0.7 1.342 1.05 2.276s0.52 1.693 0.52 2.276c0 2.802-1.98 5.487-5.95 8.055v-0.175c-2.68 1.634-4.96 2.451-6.83 2.451-2.68 0-4.84-1.342-6.48-4.027l0.18 0.175z" fill="#fff" fill-rule="nonzero"/>
                <path d="m1027.74 108.344v111.5c0 2.956-0.81 5.296-2.26 7.07-2.06 2.515-5.59 4.002-10.74 4.002s-8.68-1.487-10.74-4.002c-1.45-1.774-2.26-4.114-2.26-7.07v-121.346c0-5.373 1.66-8.833 4.4-10.66 2.62-1.655 5.71-2.513 9.3-2.513h50.96c3.34 0 6.82 0.694 10.43 2.111 3.43 1.349 6.75 3.066 9.94 5.153 0.27 0.177 0.5 0.397 0.68 0.647 3.05 2.409 5.42 5.484 7.1 9.212 1.79 3.826 2.7 8.284 2.7 13.385v25.565c0 10.432-3.58 18.178-10.55 23.344-1.36 0.992-2.85 1.924-4.46 2.793l-1.05 0.604-0.92 0.52 26.59 43.86c0.98 1.7 1.89 3.764 1.95 5.767 0.03 1.178-0.22 2.365-0.66 3.452-0.33 0.812-0.77 1.576-1.29 2.286-0.68 0.941-1.48 1.788-2.35 2.556-0.63 0.554-1.29 1.068-1.97 1.55-0.55 0.386-1.07 0.78-1.72 0.96l-0.12 0.024c-2.84 1.6-5.31 2.327-7.34 2.327-3.6 0-6.56-1.703-8.75-5.307-0.11-0.173-0.19-0.353-0.25-0.538l-31.91-53.515h-11.97c-2.87 0-5.15-1.118-6.84-3.317-0.05-0.059-0.09-0.121-0.13-0.184-1.29-2.002-2-4.631-2-7.921 0-3.747 0.9-6.519 2.45-8.393 1.69-2.057 4.18-3.204 7.57-3.204h20.49c3.25 0 5.61-0.715 6.93-2.56 1.42-1.981 2.13-4.147 2.13-6.505v-22.588c0-2.358-0.71-4.525-2.13-6.505-1.32-1.846-3.68-2.56-6.93-2.56zm57.57-13.524c-3.04-1.984-6.19-3.618-9.46-4.902-3.27-1.285-6.42-1.927-9.45-1.927h-50.96c-3.03 0-5.66 0.701-7.88 2.102-2.1 1.4-3.15 4.202-3.15 8.405v121.346c0 5.604 3.44 8.405 10.33 8.405s10.33-2.801 10.33-8.405v-114.167h36.95c4.32 0 7.35 1.226 9.1 3.677 1.76 2.451 2.63 5.136 2.63 8.055v22.588c0 2.918-0.87 5.603-2.63 8.055-1.75 2.451-4.78 3.677-9.1 3.677h-20.49c-4.9 0-7.35 2.977-7.35 8.93 0 2.685 0.52 4.845 1.57 6.479 1.17 1.518 2.75 2.276 4.73 2.276h13.48l33.1 55.508-0.18-0.175c1.64 2.685 3.8 4.027 6.48 4.027 1.87 0 4.15-0.817 6.83-2.451v0.175c3.97-2.568 5.95-5.253 5.95-8.055 0-0.583-0.17-1.342-0.52-2.276s-0.7-1.693-1.05-2.276l-28.02-46.228c1.52-0.817 2.98-1.634 4.38-2.451 1.52-0.817 2.92-1.693 4.2-2.627 6.31-4.669 9.46-11.731 9.46-21.187v-25.565c0-4.67-0.82-8.755-2.45-12.257-1.64-3.619-3.97-6.538-7.01-8.756z"/>
            </g><g transform="translate(-92.0085,72.055)">
                <path d="m1143.94 219.669c0 5.603-3.51 8.405-10.51 8.405-6.89 0-10.33-2.802-10.33-8.405v-124.148c0-5.603 3.44-8.405 10.33-8.405 7 0 10.51 2.802 10.51 8.405z" fill="#fff" fill-rule="nonzero"/>
                <path d="m1146.6 219.669v-124.148c0-2.963-0.81-5.309-2.3-7.086-2.08-2.504-5.65-3.986-10.87-3.986-5.15 0-8.68 1.487-10.74 4.002-1.45 1.774-2.26 4.114-2.26 7.07v124.148c0 2.956 0.81 5.296 2.26 7.069 2.06 2.516 5.59 4.003 10.74 4.003 5.22 0 8.79-1.482 10.87-3.986 1.49-1.777 2.3-4.123 2.3-7.086zm-2.66 0c0 5.603-3.51 8.405-10.51 8.405-6.89 0-10.33-2.802-10.33-8.405v-124.148c0-5.603 3.44-8.405 10.33-8.405 7 0 10.51 2.802 10.51 8.405z"/>
            </g></g>
    
</svg>
