<svg width="2251" height="432" fill="none" xmlns="http://www.w3.org/2000/svg"><g clip-path="url(#clip0)"><rect width="2251" height="432" rx="75" fill="#0F0F0F"/><mask id="a" fill="#fff"><path fill-rule="evenodd" clip-rule="evenodd" d="M2196 448a511.8 511.8 0 01-175 70.1 345.5 345.5 0 0017-158.1 358.7 358.7 0 0076.2-36.7 352.6 352.6 0 00131.5-150.6 346 346 0 00-58-376.8 357.3 357.3 0 00-171-105.4 361.9 361.9 0 00-201.7 2.8 357 357 0 00-184 130.6 598.9 598.9 0 00-194.6 55.7 497.4 497.4 0 0195-171.4 508 508 0 01238.8-156.7 515 515 0 01287.1-4c94.1 25.9 178.6 78 243.3 150a492.4 492.4 0 0182.6 536.1A501.7 501.7 0 012196 448zM1583-83.7c4.8-1.1 9.6-2.1 14.5-3a345.3 345.3 0 00-19.8 158.9 359 359 0 00-74.8 36.1A352.6 352.6 0 001371.3 259a346 346 0 0058 376.8 357.4 357.4 0 00171 105.4 361.9 361.9 0 00201.8-2.8 357 357 0 00184-130.7c68-7.6 133.8-26.6 194.7-56-19.8 62.5-52 121-95.1 171.8a507.9 507.9 0 01-239 156.7 515 515 0 01-287 4c-94.1-25.9-178.6-78-243.3-150a492.5 492.5 0 01-82.6-536.1 501.8 501.8 0 01208.7-227.3 513.5 513.5 0 01140.4-54.4zm337.8 243c73.3 0 132.8-58.6 132.8-130.8 0-72.3-59.5-130.8-132.8-130.8a131.9 131.9 0 00-133 130.8c0 72.2 59.6 130.8 133 130.8zm-223.5 113A131.9 131.9 0 001564.3 403c0 72.3 59.5 130.8 132.9 130.8s132.9-58.5 132.9-130.8c0-72.2-59.5-130.8-132.9-130.8z"/></mask><path d="M2021 518.1l-1.9-.6-1.1 3.3 3.4-.7-.4-2zm175-70.1l1.1 1.7-1-1.7zm-158-88l-.7-2-1.6.6.2 1.6 2-.2zm76.2-36.7l1 1.7-1-1.7zm131.5-150.6l1.8.8-1.8-.8zm27.4-196.8l2-.3-2 .3zm-85.4-180l-1.5 1.4 1.5-1.4zM1815-306.7l.5 1.9-.5-2zm-168 110.2l1.6 1.2-1.5-1.2zm-16 20.4l.2 2h.9l.5-.8-1.6-1.2zm-194.6 55.7l-1.9-.6-1.4 4.4 4.2-2-.9-1.8zm95-171.4l1.4 1.3-1.5-1.3zm238.8-156.7l-.5-2 .5 2zm287.1-4l-.5 1.9.5-2zm243.3 150l-1.4 1.4 1.4-1.4zm121.7 256l2-.2-2 .3zm-39 280.1l-1.9-.8 1.8.8zM1582.8-83.7l-2-.7-1.1 3.4 3.5-.8-.4-2zm14.5-3l1.9.6 1.2-3.3-3.5.6.4 2zm-19.8 158.9l.6 1.9 1.5-.6-.1-1.6-2 .3zm-74.8 36.1l1.1 1.7-1-1.7zM1371.3 259l1.8.9-1.8-.9zm-27.4 196.8l2-.3-2 .3zm85.4 180l1.5-1.4-1.5 1.4zm171 105.4l-.5 2 .5-2zm369.6-113l1.5 1.3-1.5-1.3zm16.2-20.5l-.2-2h-.9l-.5.8 1.6 1.2zm194.7-56l1.9.5 1.4-4.4-4.2 2 .8 1.8zm-95.1 171.8l-1.5-1.3 1.5 1.3zm-239 156.7l-.5-1.9.6 2zm-287 4l-.5 2 .5-2zm-243.3-150l-1.5 1.3 1.5-1.3zm-121.7-256l-2 .2 2-.3zm39-280.1l1.9.8-1.8-.8zM1421-16.4l1 1.7-1-1.7zm21.5-13l1 1.8 5.2-3-6-.7-.3 2zm0 0l-1-1.7-5.3 3 6 .7.2-2zm28.9-15.2l-.9-1.8.9 1.8zm39.2-17l-.8-2 .8 2zm72.3-22.1l1.9.6 1.2-3.4-3.6.8.5 2zM1564.3 403h2-2zm457.1 117a513.8 513.8 0 00175.7-70.4l-2.1-3.4a509.9 509.9 0 01-174.4 69.9l.8 3.9zm17.2-117c0 40-6.9 78.5-19.5 114.4l3.8 1.3a347.6 347.6 0 0019.7-115.7h-4zm-2.7-42.9c1.8 14 2.7 28.4 2.7 43h4c0-14.8-1-29.3-2.7-43.5l-4 .5zm77.2-38.6a356.9 356.9 0 01-75.8 36.5l1.3 3.7a360.8 360.8 0 0076.7-36.8l-2.2-3.4zM2244 171.8A350.6 350.6 0 012113 321.6l2.2 3.4c58-37 103.9-89.5 132.2-151.5l-3.6-1.7zm27.3-195.6a344 344 0 01-27.3 195.6l3.6 1.7c28.4-62 38-130.7 27.6-198l-4 .7zm-85-179a346.6 346.6 0 0185 179l4-.6a350.7 350.7 0 00-86-181l-3 2.7zm-170-104.8a355.3 355.3 0 01170 104.9l3-2.7a359.3 359.3 0 00-172-106l-1 3.8zm-200.7 2.8a359.9 359.9 0 01200.7-2.8l1-3.9a363.9 363.9 0 00-202.8 2.9l1.1 3.8zm-166.9 109.5a355 355 0 01167-109.5l-1.2-3.8a359 359 0 00-168.9 110.8l3.1 2.5zm-16 20.4c5-7 10.4-13.7 16-20.4l-3-2.5c-5.7 6.6-11.1 13.5-16.3 20.6l3.3 2.3zm-195.3 56.3a597 597 0 01193.9-55.5l-.5-4a600.9 600.9 0 00-195.2 55.9l1.8 3.6zm92.5-174.4a499 499 0 00-95.3 172l3.8 1.2a495.2 495.2 0 0194.5-170.7l-3-2.5zm239.9-157.4A510 510 0 001529.8-293l3 2.5a505.9 505.9 0 01238-156.1l-1.1-3.8zm288.1-4a517 517 0 00-288.2 4l1.2 3.8a513 513 0 01286-4l1-3.9zm244.3 150.6a510.5 510.5 0 00-244.3-150.7l-1 3.9a506.5 506.5 0 01242.4 149.5l3-2.7zm122.1 257a498.1 498.1 0 00-122-257l-3 2.7a494.2 494.2 0 01121 255l4-.6zm-39.1 281.3a494.5 494.5 0 0039.1-281.2l-4 .6c14.7 94.7 1.2 191.6-38.8 279l3.7 1.6zm-188 215.2a503.8 503.8 0 00188-215.2l-3.7-1.7A499.7 499.7 0 012195 446.3l2.1 3.4zM1583.3-81.8l14.5-3-.8-4-14.6 3.1 1 4zm12.2-5.7c-14.2 38-22 79-22 122h4c0-42.4 7.7-83 21.8-120.6l-3.8-1.4zm-22 122c0 12.8.7 25.4 2 37.9l4-.5c-1.3-12.3-2-24.8-2-37.5h-4zm3.4 35.8a361 361 0 00-75.2 36.3l2.2 3.4c23.4-14.9 48.3-27 74.3-36l-1.3-3.7zm-75.2 36.3c-58 37-103.9 89.5-132.2 151.5l3.6 1.7A350.5 350.5 0 011504 110l-2.2-3.4zm-132.2 151.5c-28.4 62-38 130.7-27.6 198l4-.7a344 344 0 0127.2-195.6l-3.6-1.7zm-27.6 198a350.7 350.7 0 0086 181l3-2.8a346.6 346.6 0 01-85-178.9l-4 .6zm86 181a359.3 359.3 0 00171.9 106l1-3.9a355.3 355.3 0 01-170-104.9l-3 2.7zm171.9 106a363.9 363.9 0 00202.8-2.9l-1.1-3.8a359.9 359.9 0 01-200.7 2.8l-1 3.9zm202.8-2.9a359 359 0 00168.9-110.8l-3.1-2.5a354.9 354.9 0 01-167 109.5l1.2 3.8zm168.9-110.8c5.7-6.7 11-13.6 16.2-20.7l-3.2-2.3c-5.1 7-10.5 13.8-16.1 20.5l3 2.5zm14.8-19.9a600.8 600.8 0 00195.3-56.2l-1.7-3.6a596.9 596.9 0 01-194 55.9l.4 4zm192.5-58.6a495.1 495.1 0 01-94.7 171.2l3.1 2.5a499.2 499.2 0 0095.5-172.5l-3.8-1.2zm-94.7 171.2a505.9 505.9 0 01-238 156.1l1.3 3.8a509.9 509.9 0 00239.8-157.4l-3-2.5zm-238 156.1a513 513 0 01-285.9 4l-1 3.9a517 517 0 00288.1-4l-1.1-3.9zm-285.9 4a506.5 506.5 0 01-242.4-149.5l-3 2.7a510.5 510.5 0 00244.4 150.7l1-3.9zm-242.4-149.5a494 494 0 01-121-255l-4 .6a498.1 498.1 0 00122 257.1l3-2.7zm-121-255a490.5 490.5 0 0138.8-279l-3.6-1.6a494.5 494.5 0 00-39.2 281.2l4-.6zm38.8-279A499.7 499.7 0 011422-14.6l-2.1-3.4a503.8 503.8 0 00-188 215.2l3.7 1.7zM1422-14.6c7-4.5 14.2-8.8 21.4-12.9l-2-3.5c-7.2 4.2-14.4 8.5-21.5 13l2.1 3.4zm20.7-16.6l-.5 4 .5-4zm.7 3.7c9.5-5.4 19-10.4 28.9-15.2l-1.8-3.6c-9.8 4.8-19.5 10-29 15.3l2 3.5zm28.9-15.2a509.7 509.7 0 0139-17l-1.5-3.8a512.6 512.6 0 00-39.3 17.2l1.8 3.6zm39-17c23.4-9 47.4-16.4 72-22l-.9-3.9c-24.7 5.6-49 13-72.6 22.1l1.5 3.8zm69.7-24.6l3.8 1.3-3.8-1.3zm470.5 112.9c0 71.1-58.5 128.8-130.8 128.8v4c74.4 0 134.8-59.4 134.8-132.8h-4zm-130.8-128.8c72.3 0 130.8 57.7 130.8 128.8h4c0-73.4-60.4-132.8-134.8-132.8v4zm-131 128.8c0-71.1 58.7-128.8 131-128.8v-4a133.9 133.9 0 00-135 132.8h4zm131 128.8a129.9 129.9 0 01-131-128.8h-4c0 73.4 60.5 132.8 135 132.8v-4zm-354.4 245.8c0-71.1 58.6-128.8 130.9-128.8v-4A133.9 133.9 0 001562.3 403h4zM1697.2 532a129.9 129.9 0 01-130.9-128.8h-4c0 73.4 60.4 132.8 134.9 132.8v-4zm130.9-128.8c0 71.1-58.6 128.8-130.9 128.8v4c74.5 0 134.9-59.4 134.9-132.8h-4zm-130.9-128.8c72.3 0 130.9 57.7 130.9 128.8h4c0-73.4-60.4-132.8-134.9-132.8v4z" fill="#2F2F2F" mask="url(#a)"/><path d="M395 276.4c-1 0-1.9-.3-2.7-1a4 4 0 01-1-2.7v-77.2h-26c-1 0-2-.3-2.7-1a4 4 0 01-1-2.7v-16c0-1 .3-2 1-2.6.8-.7 1.6-1 2.6-1h78.9a3.5 3.5 0 013.7 3.7v15.9c0 1-.4 2-1 2.7-.8.7-1.6 1-2.7 1H418v77.2a4 4 0 01-1 2.7c-.7.7-1.6 1-2.7 1H395zM444.8 276.4c-.8 0-1.5-.3-2.2-.9-.6-.7-1-1.4-1-2.2l.2-1.4 34.5-95.6c.3-1.2 1-2.2 1.9-3 1-.8 2.2-1.2 3.8-1.2h21.7c1.6 0 2.8.4 3.8 1.2 1 .8 1.6 1.8 2 3l34.2 95.6.3 1.4c0 .8-.3 1.5-1 2.2a3 3 0 01-2.2.9h-18c-2.4 0-4-1-4.7-3.1l-5.7-15.2h-39.2l-5.6 15.2c-.7 2-2.4 3.1-4.8 3.1h-18zm61.7-39.8l-13.6-39.3-13.7 39.3h27.3zM596.4 277.9a47.5 47.5 0 01-32.4-10.3c-7.7-6.8-11.6-17.2-11.6-31V176c0-1.1.3-2 1-2.7.8-.7 1.7-1 2.7-1H575c1 0 2 .3 2.6 1 .8.7 1.2 1.6 1.2 2.7v60.6c0 6.4 1.5 11.3 4.4 14.6 3 3.2 7.4 4.7 13 4.7s10-1.6 13-4.9c3-3.2 4.5-8 4.5-14.4v-60.6c0-1.1.3-2 1-2.7.8-.7 1.7-1 2.6-1h19.1c1 0 2 .3 2.6 1 .7.7 1 1.6 1 2.7v60.7c0 13.8-3.8 24.2-11.7 31a46.5 46.5 0 01-32 10.3zM663.2 276.4c-1 0-1.9-.3-2.7-1a4 4 0 01-1-2.7v-96.8c0-1.1.4-2 1-2.7.8-.7 1.7-1 2.7-1H703c12.8 0 22.7 3 29.9 8.9a30.4 30.4 0 0110.8 25c0 7-1.6 12.9-4.8 17.7a31 31 0 01-13.4 11.2l20.1 36.6c.3.6.5 1.2.5 1.7 0 .8-.4 1.5-1 2.2-.7.6-1.3.9-2.1.9h-19.5c-2.9 0-4.9-1.3-6-4l-16.7-32.8h-15v33c0 1.2-.4 2-1.2 2.8-.7.7-1.5 1-2.6 1h-19zm39.6-58c4.5 0 7.9-1 10.2-3.2 2.4-2.3 3.5-5.4 3.5-9.4s-1.1-7.1-3.5-9.4c-2.2-2.4-5.6-3.6-10.2-3.6h-16.9v25.7h16.9zM764.5 276.4c-1 0-1.8-.3-2.6-1a4 4 0 01-1-2.7v-96.8c0-1.1.3-2 1-2.7.8-.7 1.7-1 2.6-1h19.7c1 0 2 .3 2.6 1 .8.7 1.2 1.6 1.2 2.7v96.8c0 1-.4 2-1.2 2.7-.7.7-1.5 1-2.6 1h-19.7z" fill="#F7F7F7"/><path d="M248.7 187.8a20 20 0 01-19.7 20 20 20 0 01-19.8-20 20 20 0 0119.8-20.1c10.9 0 19.7 9 19.7 20z" fill="#FFC131"/><ellipse cx="195.7" cy="245.3" rx="19.8" ry="20.1" transform="rotate(180 195.7 245.3)" fill="#24C8DB"/><path fill-rule="evenodd" clip-rule="evenodd" d="M270 252.2c-8 5.3-16.9 9-26.1 10.8a54.6 54.6 0 002.5-24.3 52.7 52.7 0 0031-28.8 54.7 54.7 0 00-8.7-57.9 53 53 0 00-55.5-15.8 53 53 0 00-27.4 20.1 87 87 0 00-29 8.6 77.1 77.1 0 0149.8-50.4 74.4 74.4 0 0179 22.4A77.3 77.3 0 01270 252.2zM157.7 179l18.6 2.3c.4-3.7 1.2-7.2 2.4-10.7a74.9 74.9 0 00-21 8.4z" fill="#FFC131"/><path fill-rule="evenodd" clip-rule="evenodd" d="M154.5 180.9c8-5.3 17-9 26.3-10.9a54.6 54.6 0 00-3 24.5 52.8 52.8 0 00-30.7 28.7 54.7 54.7 0 008.7 57.9 53 53 0 0055.5 15.7 53 53 0 0027.4-20 87 87 0 0029-8.7 77.1 77.1 0 01-49.7 50.5 74.4 74.4 0 01-79-22.4 77.3 77.3 0 0115.5-115.3zm94.4 80.9l-3 .7 3-.7z" fill="#24C8DB"/></g><defs><clipPath id="clip0"><rect width="2251" height="432" rx="75" fill="#fff"/></clipPath></defs></svg>