<svg width="2251" height="432" fill="none" xmlns="http://www.w3.org/2000/svg"><g clip-path="url(#clip0)"><rect width="2251" height="432" rx="75" fill="#0F0F0F"/><mask id="a" fill="#fff"><path fill-rule="evenodd" clip-rule="evenodd" d="M1967.8 500.3a625.7 625.7 0 01-214.1 85.8 423.5 423.5 0 0020.7-193.6c32.6-11.2 64-26.3 93.2-45 70.6-44.9 126.4-108.9 161-184.4a424.2 424.2 0 00-71-461.3 437 437 0 00-209.2-129 442.2 442.2 0 00-246.8 3.4 436.5 436.5 0 00-225 160 732 732 0 00-238 68 609 609 0 01116.1-209.7c76.6-90.4 178.1-157 292.2-192 114.2-35 236.1-36.6 351.2-4.9a621.9 621.9 0 01297.6 183.8 607.8 607.8 0 01148.8 313.5 603.7 603.7 0 01-47.8 343 614.2 614.2 0 01-229 262.4zm-750-651.1c5.9-1.3 11.8-2.6 17.7-3.7A423.3 423.3 0 001211.3 40c-32 11.1-62.7 26-91.4 44.3a431.6 431.6 0 00-161 184.4 424.2 424.2 0 00-33.5 241A427.1 427.1 0 001030 730a437 437 0 00209 129.1 442.2 442.2 0 00246.8-3.4A436.5 436.5 0 001711 695.7a731.8 731.8 0 00238-68.6 608.9 608.9 0 01-116.2 210.3 621.2 621.2 0 01-292.2 192 629.2 629.2 0 01-351.2 5 621.9 621.9 0 01-297.6-183.8A607.8 607.8 0 01743 537a603.6 603.6 0 0147.8-342.9A614.2 614.2 0 011046-84.2a624 624 0 01171.8-66.6zm413.1 297.6c89.8 0 162.6-71.7 162.6-160.2 0-88.5-72.8-160.2-162.6-160.2a161.4 161.4 0 00-162.5 160.2c0 88.5 72.8 160.2 162.5 160.2zM1357.6 285a161.4 161.4 0 00-162.5 160.2c0 88.5 72.8 160.2 162.5 160.2 89.8 0 162.5-71.7 162.5-160.2 0-88.4-72.7-160.2-162.5-160.2z"/></mask><path d="M1753.7 586.1l-1.9-.6-1.2 3.3 3.5-.7-.4-2zm214-85.8l1.2 1.7-1.1-1.7zm-193.3-107.8l-.7-2-1.5.6.2 1.6 2-.2zm93.2-45l1.1 1.8-1-1.7zm161-184.4l1.8.9-1.9-.9zm-71-461.3l1.4-1.3-1.5 1.3zm-209.2-129l.5-2-.5 2zm-246.8 3.4l.6 1.9-.5-2zM1296.4-289l1.5 1.3-1.5-1.3zm-19.7 25l.2 2h.9l.5-.8-1.6-1.2zm-238 68.2l-1.9-.6-1.4 4.4 4.2-2-.9-1.8zm116.1-209.8l1.5 1.3-1.5-1.3zm292.2-192l.6 2-.6-2zm351.2-4.9l-.5 2 .5-2zm297.6 183.8l-1.5 1.3 1.5-1.3zm148.8 313.5l-2 .3 2-.3zm-47.8 343l1.9.7-1.9-.8zm-979-388.7l-1.8-.7-1.2 3.4 3.5-.8-.4-1.9zm17.8-3.7l1.9.7 1.3-3.4-3.6.7.4 2zM1211.3 40l.7 1.9 1.5-.6-.2-1.5-2 .2zm-91.4 44.3l1 1.6-1-1.6zm-161 184.4l1.9.8-1.8-.8zm-33.5 241l2-.3-2 .3zM1030 730l1.4-1.3-1.5 1.3zm209 129.1l.6-2-.5 2zm246.8-3.4l.6 1.9-.6-2zm205.4-135l1.5 1.4-1.5-1.3zm19.8-25.1l-.2-2h-.9l-.5.8 1.6 1.2zm238-68.6l2 .6 1.4-4.5-4.2 2 .9 1.9zm-116.2 210.3l1.5 1.3-1.5-1.3zm-292.2 192l.5 2-.5-2zm-351.2 5l.5-2-.5 2zM891.8 850.5l-1.5 1.3 1.5-1.3zM743 537l2-.3-2 .3zm47.8-342.9l1.8.8-1.8-.8zm229-262.4l1 1.6-1-1.6zm26.2-15.9l1 1.7 5.3-3-6-.7-.3 2zm0 0l-1-1.7-5.3 3 6 .7.3-2zm28.1-15l.9 1.7-.9-1.8zm55.2-24.6l-.7-1.9.7 1.9zm88.5-27l1.9.7 1.1-3.4-3.5.7.5 2zM1195 445.3h2-2zm559 142.8c76-15.1 149-44.2 214.8-86.1l-2.2-3.4a623.7 623.7 0 01-213.4 85.6l.8 3.9zm21.5-142.8c0 49.1-8.3 96.3-23.8 140.2l3.8 1.3c15.6-44.3 24-92 24-141.5h-4zm-3.2-52.6c2.1 17.3 3.2 34.8 3.2 52.6h4c0-18-1-35.7-3.2-53l-4 .4zm94.2-46.8a436.9 436.9 0 01-92.9 44.7l1.3 3.8a440.8 440.8 0 0093.7-45.1l-2.1-3.4zm160.1-183.6a429.6 429.6 0 01-160.1 183.6l2.1 3.4A433.6 433.6 0 002030.3 164l-3.6-1.7zm33.4-239.8c12.5 81.4 1 164.7-33.4 239.8l3.6 1.7a426.2 426.2 0 0033.8-242.1l-4 .6zm-104-219.3a425.1 425.1 0 01104 219.3l4-.6a429.2 429.2 0 00-105-221.4l-3 2.7zm-208.2-128.6A435 435 0 011956-296.8l3-2.7a439 439 0 00-210.2-129.7l-1 3.8zm-245.7 3.5a440.2 440.2 0 01245.7-3.5l1-3.8a444.2 444.2 0 00-247.8 3.4l1.1 3.9zm-204.4 134.3A434.6 434.6 0 011502.2-422l-1.1-3.9a438.5 438.5 0 00-206.3 135.6l3 2.6zm-19.6 25c6.2-8.6 12.8-17 19.6-25l-3-2.6c-7 8.1-13.6 16.5-19.8 25.2l3.2 2.3zM1039.5-194a730 730 0 01237.3-68l-.4-4a734 734 0 00-238.7 68.4l1.8 3.6zm113.7-213a611 611 0 00-116.5 210.6l3.8 1.2a607 607 0 01115.7-209.1l-3-2.6zm293.2-192.5a623.2 623.2 0 00-293.2 192.6l3 2.6a619.2 619.2 0 01291.3-191.4l-1.1-3.8zm352.2-5a631.2 631.2 0 00-352.2 5l1.1 3.8a627.2 627.2 0 01350-4.9l1.1-3.8zM2097.2-420a623.8 623.8 0 00-298.6-184.3l-1 3.8a619.9 619.9 0 01296.6 183.2l3-2.7zm149.3 314.6A609.8 609.8 0 002097.2-420l-3 2.7c79 88 130.4 196.4 148.3 312.5l4-.6zm-48 344a605.6 605.6 0 0048-344l-4 .6A601.7 601.7 0 012195 237l3.7 1.6zM1969 502a616.2 616.2 0 00229.7-263.4l-3.7-1.6a612.2 612.2 0 01-228.2 261.6l2.2 3.4zM1218.2-149l17.7-3.7-.8-4-17.8 3.8 1 4zm15.5-6.3a425.1 425.1 0 00-26.9 149h4a421 421 0 0126.6-147.6l-3.8-1.4zm-26.9 149c0 15.8.9 31.3 2.5 46.5l4-.4a425.8 425.8 0 01-2.5-46h-4zm3.8 44.4a441 441 0 00-91.8 44.5l2.1 3.3c28.7-18.2 59.2-33 91-44l-1.3-3.8zm-91.8 44.5A433.6 433.6 0 00957 268l3.7 1.6A429.6 429.6 0 011120.9 86l-2.1-3.3zM957 268a426.2 426.2 0 00-33.7 242l4-.5a422.2 422.2 0 0133.4-239.9L957 268zm-33.7 242a429 429 0 00105 221.4l3-2.6a425.1 425.1 0 01-104-219.3l-4 .6zm105 221.4a439 439 0 00210.2 129.7l1-3.8a435 435 0 01-208.2-128.5l-3 2.6zm210.2 129.7a444.2 444.2 0 00247.8-3.4l-1.1-3.8a440.2 440.2 0 01-245.7 3.4l-1 3.8zm247.8-3.4a438.5 438.5 0 00206.3-135.5l-3-2.6a434.5 434.5 0 01-204.4 134.3l1.1 3.8zm206.3-135.5c7-8.3 13.6-16.7 20-25.4l-3.3-2.3a429 429 0 01-19.7 25l3 2.7zm18.5-24.6A734 734 0 001950 629l-1.8-3.6a729.9 729.9 0 01-237.4 68.4l.4 4zm236-71.1a607.2 607.2 0 01-116 209.7l3.1 2.5a611 611 0 00116.7-211l-3.8-1.2zm-116 209.7a619.3 619.3 0 01-291.2 191.3l1.1 3.8a623.1 623.1 0 00293.2-192.6l-3-2.5zM1540 1027.5a627.2 627.2 0 01-350 4.9l-1.1 3.8a631.2 631.2 0 00352.2-4.9l-1.1-3.8zm-350 4.9a619.8 619.8 0 01-296.7-183.2l-3 2.7a623.9 623.9 0 00298.6 184.4l1-4zM893.2 849.2A605.8 605.8 0 01745 536.7l-4 .6c18 116.9 69.8 226.1 149.3 314.6l3-2.7zM745 536.7A601.6 601.6 0 01792.6 195l-3.7-1.6a605.6 605.6 0 00-47.9 344l4-.6zM792.6 195a612.2 612.2 0 01228.2-261.6l-2.2-3.3A616.2 616.2 0 00789 193.3l3.7 1.6zm228.2-261.6c8.6-5.5 17.3-10.7 26.2-15.8l-2-3.4c-8.9 5-17.7 10.3-26.4 15.9l2.2 3.3zm25.4-19.5l-.4 4 .4-4zm.8 3.7c9.2-5.2 18.5-10.2 28-15l-1.8-3.6c-9.5 4.8-19 9.9-28.2 15.2l2 3.4zm28-15c18-9 36.3-17.2 55-24.5l-1.4-3.7a627.3 627.3 0 00-55.4 24.6l1.8 3.6zm55-24.5a625 625 0 0188.2-26.9l-.9-3.9c-30.2 6.9-59.9 16-88.7 27.1l1.5 3.7zm85.9-29.5l3.8 1.4-3.8-1.4zm575.6 138.1c0 87.3-71.9 158.2-160.6 158.2v4c90.9 0 164.6-72.6 164.6-162.2h-4zm-160.6-158.2c88.7 0 160.6 70.9 160.6 158.2h4c0-89.6-73.7-162.2-164.6-162.2v4zM1470.4-13.4c0-87.3 71.9-158.2 160.5-158.2v-4a163.4 163.4 0 00-164.5 162.2h4zM1631 144.8a159.4 159.4 0 01-160.5-158.2h-4c0 89.6 73.7 162.2 164.5 162.2v-4zm-433.8 300.5c0-87.3 71.8-158.2 160.5-158.2v-4a163.4 163.4 0 00-164.5 162.2h4zm160.5 158.2a159.4 159.4 0 01-160.5-158.2h-4c0 89.6 73.7 162.2 164.5 162.2v-4zm160.5-158.2c0 87.4-71.8 158.2-160.5 158.2v4c90.8 0 164.5-72.6 164.5-162.2h-4zm-160.5-158.2c88.7 0 160.5 70.9 160.5 158.2h4c0-89.6-73.7-162.2-164.5-162.2v4z" fill="#2F2F2F" mask="url(#a)"/><path d="M365.6 269c-.8 0-1.6-.3-2.3-.9-.6-.7-.9-1.5-.9-2.3V198h-23c-.8 0-1.5-.3-2.2-1-.6-.6-1-1.4-1-2.3v-14c0-.9.4-1.7 1-2.3.7-.6 1.4-.9 2.3-.9h69.3c1 0 1.7.3 2.3 1 .6.5 1 1.3 1 2.3v14c0 .9-.4 1.7-1 2.3-.6.6-1.4 1-2.3 1h-23v67.6c0 .8-.2 1.6-.8 2.3-.6.6-1.4 1-2.4 1h-17zM409.4 269c-.7 0-1.3-.2-2-.8a3 3 0 01-.7-2l.1-1.1 30.3-83.8c.2-1 .8-2 1.7-2.7.8-.7 2-1 3.3-1h19c1.4 0 2.6.3 3.4 1 .9.7 1.4 1.6 1.7 2.7l30.1 83.8.3 1.2c0 .7-.3 1.3-.9 2-.5.5-1.2.7-2 .7H478c-2 0-3.4-.9-4.1-2.7l-5-13.3h-34.4l-5 13.3c-.6 1.8-2 2.7-4.2 2.7h-15.8zm54.2-34.8l-12-34.5-12 34.5h24zM542.6 270.3c-12 0-21.6-3-28.5-9-6.7-6-10.1-15-10.1-27.2V181c0-1 .3-1.8.9-2.4.7-.6 1.4-.9 2.3-.9h16.6c1 0 1.7.3 2.3 1a3 3 0 011 2.3V234c0 5.7 1.3 10 4 12.8 2.6 2.8 6.4 4.2 11.4 4.2 4.9 0 8.7-1.4 11.3-4.3 2.7-2.9 4-7.1 4-12.7V181c0-1 .3-1.8 1-2.4.6-.6 1.4-.9 2.2-.9h16.8a3.1 3.1 0 013.2 3.3v53.3c0 12-3.4 21.1-10.3 27.1-6.8 6-16.1 9-28 9zM601.3 269c-.8 0-1.6-.3-2.3-.9-.6-.7-1-1.5-1-2.3v-85c0-.9.4-1.7 1-2.3.7-.6 1.5-.9 2.3-.9h35c11.3 0 20 2.6 26.3 7.8a26.6 26.6 0 019.6 22c0 6-1.4 11.3-4.3 15.5a27.2 27.2 0 01-11.7 9.8l17.6 32.1c.3.6.4 1 .4 1.5 0 .7-.3 1.3-.9 2-.5.5-1 .7-1.8.7h-17.1a5.4 5.4 0 01-5.3-3.5l-14.7-28.7h-13.1v29a3 3 0 01-1 2.3c-.6.6-1.4 1-2.4 1h-16.6zm34.8-50.8c4 0 7-1 9-2.9 2-2 3.1-4.7 3.1-8.2 0-3.5-1-6.2-3-8.2-2-2.1-5-3.1-9.1-3.1h-14.8v22.4H636zM690.4 269c-.9 0-1.6-.3-2.3-.9-.6-.7-1-1.5-1-2.3v-85c0-.9.4-1.7 1-2.3.7-.6 1.4-.9 2.3-.9h17.3c.9 0 1.7.3 2.3 1a3 3 0 011 2.3v84.9a3 3 0 01-1 2.3c-.6.6-1.4 1-2.3 1h-17.3z" fill="#F7F7F7"/><path d="M237.1 191.3c0 9.7-7.8 17.6-17.4 17.6-9.6 0-17.3-7.9-17.3-17.6 0-9.7 7.7-17.6 17.3-17.6 9.6 0 17.4 7.9 17.4 17.6z" fill="#FFC131"/><ellipse cx="190.5" cy="241.8" rx="17.4" ry="17.6" transform="rotate(180 190.5 241.8)" fill="#24C8DB"/><path fill-rule="evenodd" clip-rule="evenodd" d="M255.8 247.8c-7 4.6-14.8 7.8-23 9.5a47.8 47.8 0 002.3-21.3 46.4 46.4 0 0027.2-25.3 47.9 47.9 0 00-7.6-50.7 46.6 46.6 0 00-48.8-13.9 46.6 46.6 0 00-24 17.6c-9 1-17.6 3.6-25.5 7.5A67.6 67.6 0 01200 127a65.5 65.5 0 0169.4 19.7 67.7 67.7 0 01-13.7 101.1zm-98.6-64.3l16.2 2c.4-3.2 1.1-6.3 2.1-9.3-6.4 1.5-12.6 4-18.3 7.3z" fill="#FFC131"/><path fill-rule="evenodd" clip-rule="evenodd" d="M154.4 185.3c7-4.7 14.9-7.9 23-9.5a47.8 47.8 0 00-2.6 21.4 46.4 46.4 0 00-27 25.2 47.9 47.9 0 007.6 50.7 46.6 46.6 0 0048.8 13.8 46.6 46.6 0 0024.1-17.6c9-1 17.5-3.6 25.5-7.5A67.6 67.6 0 01210 306a65.5 65.5 0 01-69.4-19.7 67.7 67.7 0 0113.7-101.1zm98.5 64.3zm-14 6.1l-4.3 1.2a66 66 0 004.3-1.2z" fill="#24C8DB"/></g><defs><clipPath id="clip0"><rect width="2251" height="432" rx="75" fill="#fff"/></clipPath></defs></svg>