<svg width="2251" height="432" viewBox="0 0 2251 432" fill="none" xmlns="http://www.w3.org/2000/svg">
<g clip-path="url(#clip0)">
<rect width="2251" height="432" rx="75" fill="#0F0F0F"/>
<mask id="path-2-inside-1" fill="white">
<path fill-rule="evenodd" clip-rule="evenodd" d="M1967.78 500.276C1902.2 542.054 1829.52 571.054 1753.69 586.137C1769.21 542.021 1777.64 494.64 1777.64 445.317C1777.64 427.426 1776.53 409.792 1774.38 392.475C1807.01 381.274 1838.33 366.235 1867.64 347.565C1938.17 302.638 1994.04 238.596 2028.53 163.132C2063.02 87.6686 2074.67 3.99412 2062.08 -77.8372C2049.49 -159.669 2013.19 -236.176 1957.54 -298.166C1901.9 -360.156 1829.28 -404.991 1748.41 -427.286C1667.53 -449.58 1581.85 -448.385 1501.65 -423.843C1421.44 -399.301 1350.14 -352.457 1296.3 -288.94C1289.4 -280.804 1282.83 -272.44 1276.59 -263.865C1193.51 -254.767 1113.03 -231.591 1038.62 -195.741C1062.84 -272.17 1102.17 -343.521 1154.72 -405.518C1231.34 -495.908 1332.81 -562.57 1446.94 -597.495C1561.07 -632.42 1683.01 -634.121 1798.1 -602.394C1913.19 -570.668 2016.53 -506.863 2095.72 -418.647C2174.91 -330.43 2226.56 -221.555 2244.48 -105.103C2262.4 11.349 2245.82 130.424 2196.74 237.814C2147.66 345.205 2068.15 436.342 1967.78 500.276ZM1217.77 -150.802C1223.67 -152.135 1229.59 -153.384 1235.52 -154.548C1218.24 -108.286 1208.8 -58.2844 1208.8 -6.11001C1208.8 9.49583 1209.65 24.9074 1211.29 40.0826C1179.32 51.2151 1148.62 66.0395 1119.86 84.361C1049.33 129.287 993.459 193.33 958.968 268.794C924.476 344.257 912.826 427.932 925.419 509.763C938.011 591.594 974.311 668.101 1029.95 730.091C1085.6 792.081 1158.22 836.917 1239.09 859.212C1319.97 881.506 1405.65 880.311 1485.85 855.769C1566.05 831.227 1637.36 784.383 1691.2 720.866C1698.13 712.689 1704.74 704.281 1711 695.661C1794.16 686.422 1874.66 663.09 1949.07 627.065C1924.87 703.721 1885.47 775.284 1832.78 837.444C1756.16 927.834 1654.69 994.496 1540.56 1029.42C1426.42 1064.35 1304.49 1066.05 1189.4 1034.32C1074.31 1002.59 970.964 938.789 891.779 850.572C812.593 762.356 760.937 653.481 743.017 537.029C725.097 420.577 741.675 301.502 790.759 194.111C839.844 86.721 919.346 -4.41628 1019.71 -68.3498C1028.36 -73.8557 1037.13 -79.1395 1046.01 -84.1989L1046 -84.1992C1055.24 -89.4595 1064.6 -94.4809 1074.09 -99.2593C1092.09 -108.331 1110.53 -116.526 1129.33 -123.819C1158.04 -134.953 1187.6 -143.981 1217.77 -150.804C1217.77 -150.803 1217.77 -150.802 1217.77 -150.802ZM1630.94 146.793C1720.7 146.793 1793.47 75.0765 1793.47 -13.3905C1793.47 -101.857 1720.7 -173.574 1630.94 -173.574C1541.18 -173.574 1468.42 -101.857 1468.42 -13.3905C1468.42 75.0765 1541.18 146.793 1630.94 146.793ZM1357.61 285.133C1267.85 285.133 1195.08 356.85 1195.08 445.317C1195.08 533.784 1267.85 605.5 1357.61 605.5C1447.37 605.5 1520.13 533.784 1520.13 445.317C1520.13 356.85 1447.37 285.133 1357.61 285.133Z"/>
</mask>
<path d="M1753.69 586.137L1751.8 585.473L1750.63 588.783L1754.08 588.098L1753.69 586.137ZM1967.78 500.276L1968.86 501.963L1968.86 501.963L1967.78 500.276ZM1774.38 392.475L1773.73 390.584L1772.19 391.111L1772.39 392.722L1774.38 392.475ZM1867.64 347.565L1868.72 349.252L1868.72 349.252L1867.64 347.565ZM2028.53 163.132L2030.35 163.964L2030.35 163.964L2028.53 163.132ZM2062.08 -77.8372L2064.06 -78.1414L2064.06 -78.1414L2062.08 -77.8372ZM1957.54 -298.166L1959.03 -299.502L1959.03 -299.502L1957.54 -298.166ZM1748.41 -427.286L1747.87 -425.358L1748.41 -427.286ZM1501.65 -423.843L1502.23 -421.931L1502.23 -421.931L1501.65 -423.843ZM1296.3 -288.94L1294.77 -290.233L1294.77 -290.233L1296.3 -288.94ZM1276.59 -263.865L1276.81 -261.877L1277.69 -261.973L1278.21 -262.688L1276.59 -263.865ZM1038.62 -195.741L1036.71 -196.345L1035.31 -191.928L1039.48 -193.939L1038.62 -195.741ZM1154.72 -405.518L1156.24 -404.225L1156.24 -404.225L1154.72 -405.518ZM1446.94 -597.495L1446.36 -599.407L1446.94 -597.495ZM1798.1 -602.394L1797.57 -600.466L1797.57 -600.466L1798.1 -602.394ZM2244.48 -105.103L2242.51 -104.799L2242.51 -104.799L2244.48 -105.103ZM2196.74 237.814L2198.56 238.646L2198.56 238.646L2196.74 237.814ZM1217.77 -150.802L1215.88 -151.456L1214.7 -148.058L1218.21 -148.851L1217.77 -150.802ZM1235.52 -154.548L1237.4 -153.848L1238.65 -157.199L1235.14 -156.511L1235.52 -154.548ZM1211.29 40.0826L1211.95 41.9713L1213.45 41.4483L1213.28 39.8669L1211.29 40.0826ZM1119.86 84.361L1118.78 82.6742L1118.78 82.6742L1119.86 84.361ZM925.419 509.763L923.442 510.067L923.442 510.067L925.419 509.763ZM1029.95 730.091L1031.44 728.755L1031.44 728.755L1029.95 730.091ZM1239.09 859.212L1238.56 861.14L1238.56 861.14L1239.09 859.212ZM1485.85 855.769L1486.44 857.681L1486.44 857.681L1485.85 855.769ZM1691.2 720.866L1689.67 719.573L1689.67 719.573L1691.2 720.866ZM1711 695.661L1710.78 693.673L1709.9 693.771L1709.39 694.485L1711 695.661ZM1949.07 627.065L1950.98 627.667L1952.38 623.243L1948.2 625.265L1949.07 627.065ZM1832.78 837.444L1834.31 838.737L1834.31 838.737L1832.78 837.444ZM1540.56 1029.42L1539.97 1027.51L1539.97 1027.51L1540.56 1029.42ZM891.779 850.572L890.291 851.908L890.291 851.908L891.779 850.572ZM743.017 537.029L741.04 537.333L741.04 537.333L743.017 537.029ZM790.759 194.111L788.94 193.28L788.94 193.28L790.759 194.111ZM1019.71 -68.3498L1020.79 -66.663L1020.79 -66.663L1019.71 -68.3498ZM1046.01 -84.1989L1047 -82.4612L1052.28 -85.4741L1046.24 -86.1852L1046.01 -84.1989ZM1046 -84.1992L1045.01 -85.937L1039.72 -82.9241L1045.77 -82.2129L1046 -84.1992ZM1074.09 -99.2593L1074.99 -97.4732L1074.99 -97.4732L1074.09 -99.2593ZM1129.33 -123.819L1128.61 -125.684L1128.61 -125.684L1129.33 -123.819ZM1217.77 -150.804L1219.66 -150.15L1220.84 -153.548L1217.33 -152.755L1217.77 -150.804ZM1195.08 445.317L1197.08 445.317L1197.08 445.317L1195.08 445.317ZM1754.08 588.098C1830.16 572.968 1903.06 543.875 1968.86 501.963L1966.71 498.589C1901.33 540.233 1828.89 569.141 1753.29 584.175L1754.08 588.098ZM1775.64 445.317C1775.64 494.41 1767.25 541.567 1751.8 585.473L1755.57 586.801C1771.17 542.475 1779.64 494.869 1779.64 445.317H1775.64ZM1772.39 392.722C1774.54 409.957 1775.64 427.509 1775.64 445.317H1779.64C1779.64 427.344 1778.53 409.626 1776.36 392.228L1772.39 392.722ZM1866.57 345.878C1837.39 364.463 1806.21 379.433 1773.73 390.584L1775.03 394.367C1807.81 383.115 1839.27 368.008 1868.72 349.252L1866.57 345.878ZM2026.71 162.301C1992.38 237.411 1936.78 301.157 1866.57 345.878L1868.72 349.252C1939.57 304.12 1995.7 239.781 2030.35 163.964L2026.71 162.301ZM2060.1 -77.533C2072.64 3.91162 2061.04 87.1914 2026.71 162.301L2030.35 163.964C2065 88.1457 2076.71 4.07663 2064.06 -78.1414L2060.1 -77.533ZM1956.06 -296.83C2011.44 -235.127 2047.57 -158.978 2060.1 -77.533L2064.06 -78.1414C2051.4 -160.359 2014.93 -237.224 1959.03 -299.502L1956.06 -296.83ZM1747.87 -425.358C1828.38 -403.164 1900.67 -358.533 1956.06 -296.83L1959.03 -299.502C1903.13 -361.779 1830.18 -406.819 1748.94 -429.214L1747.87 -425.358ZM1502.23 -421.931C1582.07 -446.361 1667.37 -447.551 1747.87 -425.358L1748.94 -429.214C1667.7 -451.609 1581.62 -450.408 1501.06 -425.756L1502.23 -421.931ZM1297.82 -287.647C1351.42 -350.87 1422.39 -397.5 1502.23 -421.931L1501.06 -425.756C1420.5 -401.103 1348.86 -354.045 1294.77 -290.233L1297.82 -287.647ZM1278.21 -262.688C1284.42 -271.223 1290.96 -279.549 1297.82 -287.647L1294.77 -290.233C1287.84 -282.06 1281.24 -273.656 1274.97 -265.042L1278.21 -262.688ZM1039.48 -193.939C1113.7 -229.691 1193.95 -252.804 1276.81 -261.877L1276.37 -265.853C1193.06 -256.731 1112.37 -233.491 1037.75 -197.543L1039.48 -193.939ZM1153.19 -406.811C1100.47 -344.612 1061.01 -273.027 1036.71 -196.345L1040.52 -195.137C1064.66 -271.313 1103.86 -342.43 1156.24 -404.225L1153.19 -406.811ZM1446.36 -599.407C1331.86 -564.371 1230.06 -497.496 1153.19 -406.811L1156.24 -404.225C1232.61 -494.32 1333.76 -560.769 1447.53 -595.582L1446.36 -599.407ZM1798.63 -604.322C1683.18 -636.15 1560.85 -634.443 1446.36 -599.407L1447.53 -595.582C1561.3 -630.396 1682.84 -632.092 1797.57 -600.466L1798.63 -604.322ZM2097.21 -419.983C2017.77 -508.486 1914.09 -572.495 1798.63 -604.322L1797.57 -600.466C1912.29 -568.84 2015.3 -505.24 2094.23 -417.311L2097.21 -419.983ZM2246.46 -105.407C2228.48 -222.246 2176.65 -331.479 2097.21 -419.983L2094.23 -417.311C2173.16 -329.382 2224.64 -220.864 2242.51 -104.799L2246.46 -105.407ZM2198.56 238.646C2247.81 130.901 2264.44 11.4315 2246.46 -105.407L2242.51 -104.799C2260.37 11.2665 2243.84 129.947 2194.92 236.983L2198.56 238.646ZM1968.86 501.963C2069.55 437.823 2149.31 346.39 2198.56 238.646L2194.92 236.983C2146 344.019 2066.76 434.861 1966.71 498.589L1968.86 501.963ZM1218.21 -148.851C1224.09 -150.18 1229.99 -151.425 1235.91 -152.586L1235.14 -156.511C1229.18 -155.343 1223.24 -154.09 1217.33 -152.752L1218.21 -148.851ZM1233.65 -155.248C1216.28 -108.766 1206.8 -58.5273 1206.8 -6.11001H1210.8C1210.8 -58.0414 1220.19 -107.807 1237.4 -153.848L1233.65 -155.248ZM1206.8 -6.11001C1206.8 9.56803 1207.65 25.0516 1209.3 40.2982L1213.28 39.8669C1211.64 24.7632 1210.8 9.42363 1210.8 -6.11001H1206.8ZM1210.63 38.1938C1178.52 49.3769 1147.68 64.2688 1118.78 82.6742L1120.93 86.0478C1149.56 67.8102 1180.12 53.0534 1211.95 41.9713L1210.63 38.1938ZM1118.78 82.6742C1047.93 127.806 991.802 192.145 957.149 267.962L960.787 269.625C995.117 194.515 1050.72 130.769 1120.93 86.0478L1118.78 82.6742ZM957.149 267.962C922.495 343.78 910.79 427.849 923.442 510.067L927.396 509.459C914.862 428.014 926.457 344.734 960.787 269.625L957.149 267.962ZM923.442 510.067C936.094 592.285 972.564 669.15 1028.47 731.427L1031.44 728.755C976.057 667.053 939.929 590.904 927.396 509.459L923.442 510.067ZM1028.47 731.427C1084.37 793.704 1157.32 838.744 1238.56 861.14L1239.63 857.284C1159.12 835.09 1086.83 790.458 1031.44 728.755L1028.47 731.427ZM1238.56 861.14C1319.8 883.535 1405.87 882.334 1486.44 857.681L1485.27 853.856C1405.43 878.287 1320.13 879.477 1239.63 857.284L1238.56 861.14ZM1486.44 857.681C1567 833.029 1638.64 785.971 1692.73 722.159L1689.67 719.573C1636.08 782.796 1565.11 829.426 1485.27 853.856L1486.44 857.681ZM1692.73 722.159C1699.69 713.945 1706.32 705.497 1712.62 696.837L1709.39 694.485C1703.15 703.065 1696.57 711.434 1689.67 719.573L1692.73 722.159ZM1711.22 697.649C1794.61 688.385 1875.32 664.989 1949.95 628.865L1948.2 625.265C1873.99 661.191 1793.71 684.459 1710.78 693.673L1711.22 697.649ZM1947.17 626.463C1923.04 702.866 1883.77 774.193 1831.26 836.151L1834.31 838.737C1887.17 776.374 1926.7 704.577 1950.98 627.667L1947.17 626.463ZM1831.26 836.151C1754.88 926.246 1653.74 992.695 1539.97 1027.51L1541.14 1031.33C1655.64 996.297 1757.44 929.422 1834.31 838.737L1831.26 836.151ZM1539.97 1027.51C1426.2 1062.32 1304.65 1064.02 1189.93 1032.39L1188.87 1036.25C1304.32 1068.08 1426.65 1066.37 1541.14 1031.33L1539.97 1027.51ZM1189.93 1032.39C1075.21 1000.77 972.195 937.166 893.267 849.236L890.291 851.908C969.734 940.412 1073.41 1004.42 1188.87 1036.25L1189.93 1032.39ZM893.267 849.236C814.34 761.307 762.854 652.79 744.994 536.725L741.04 537.333C759.02 654.172 810.847 763.405 890.291 851.908L893.267 849.236ZM744.994 536.725C727.133 420.659 743.656 301.979 792.578 194.943L788.94 193.28C739.694 301.025 723.06 420.494 741.04 537.333L744.994 536.725ZM792.578 194.943C841.501 87.9064 920.744 -2.93505 1020.79 -66.663L1018.64 -70.0367C917.949 -5.89751 838.186 85.5357 788.94 193.28L792.578 194.943ZM1020.79 -66.663C1029.41 -72.1511 1038.14 -77.418 1047 -82.4612L1045.02 -85.9367C1036.11 -80.8611 1027.31 -75.5602 1018.64 -70.0367L1020.79 -66.663ZM1046.24 -86.1852L1046.24 -86.1855L1045.77 -82.2129L1045.77 -82.2126L1046.24 -86.1852ZM1046.99 -82.4614C1056.2 -87.7048 1065.53 -92.7101 1074.99 -97.4732L1073.19 -101.045C1063.67 -96.2517 1054.28 -91.2142 1045.01 -85.937L1046.99 -82.4614ZM1074.99 -97.4732C1092.93 -106.516 1111.31 -114.685 1130.06 -121.954L1128.61 -125.684C1109.75 -118.368 1091.25 -110.146 1073.19 -101.045L1074.99 -97.4732ZM1130.06 -121.954C1158.67 -133.052 1188.14 -142.052 1218.21 -148.853L1217.33 -152.755C1187.06 -145.91 1157.41 -136.853 1128.61 -125.684L1130.06 -121.954ZM1215.88 -151.458C1215.88 -151.451 1215.88 -151.445 1215.87 -151.441C1215.87 -151.439 1215.87 -151.438 1215.87 -151.437C1215.87 -151.436 1215.87 -151.436 1215.87 -151.436C1215.87 -151.435 1215.87 -151.435 1215.87 -151.435C1215.87 -151.435 1215.87 -151.437 1215.87 -151.44C1215.87 -151.443 1215.88 -151.449 1215.88 -151.456L1219.66 -150.147C1219.66 -150.154 1219.66 -150.16 1219.66 -150.164C1219.67 -150.166 1219.67 -150.168 1219.67 -150.169C1219.67 -150.169 1219.67 -150.169 1219.67 -150.17C1219.67 -150.17 1219.67 -150.17 1219.67 -150.17C1219.67 -150.171 1219.67 -150.168 1219.67 -150.165C1219.66 -150.162 1219.66 -150.156 1219.66 -150.15L1215.88 -151.458ZM1791.47 -13.3905C1791.47 73.9446 1719.63 144.793 1630.94 144.793V148.793C1721.78 148.793 1795.47 76.2083 1795.47 -13.3905H1791.47ZM1630.94 -171.574C1719.63 -171.574 1791.47 -100.726 1791.47 -13.3905H1795.47C1795.47 -102.989 1721.78 -175.574 1630.94 -175.574V-171.574ZM1470.42 -13.3905C1470.42 -100.726 1542.26 -171.574 1630.94 -171.574V-175.574C1540.11 -175.574 1466.42 -102.989 1466.42 -13.3905H1470.42ZM1630.94 144.793C1542.26 144.793 1470.42 73.9446 1470.42 -13.3905H1466.42C1466.42 76.2083 1540.11 148.793 1630.94 148.793V144.793ZM1197.08 445.317C1197.08 357.982 1268.92 287.133 1357.61 287.133V283.133C1266.77 283.133 1193.08 355.718 1193.08 445.317L1197.08 445.317ZM1357.61 603.5C1268.92 603.5 1197.08 532.652 1197.08 445.317H1193.08C1193.08 534.916 1266.77 607.5 1357.61 607.5V603.5ZM1518.13 445.317C1518.13 532.652 1446.29 603.5 1357.61 603.5V607.5C1448.44 607.5 1522.13 534.915 1522.13 445.317H1518.13ZM1357.61 287.133C1446.29 287.133 1518.13 357.982 1518.13 445.317H1522.13C1522.13 355.718 1448.44 283.133 1357.61 283.133V287.133Z" fill="#292929" mask="url(#path-2-inside-1)"/>
<path d="M365.636 269.02C364.777 269.02 364.004 268.715 363.317 268.106C362.716 267.409 362.415 266.626 362.415 265.755V198.105H339.484C338.625 198.105 337.852 197.801 337.165 197.191C336.564 196.495 336.263 195.711 336.263 194.84V180.866C336.263 179.909 336.564 179.125 337.165 178.516C337.852 177.906 338.625 177.601 339.484 177.601H408.794C409.738 177.601 410.511 177.906 411.113 178.516C411.714 179.125 412.014 179.909 412.014 180.866V194.84C412.014 195.798 411.714 196.582 411.113 197.191C410.511 197.801 409.738 198.105 408.794 198.105H385.862V265.755C385.862 266.626 385.562 267.409 384.96 268.106C384.359 268.715 383.586 269.02 382.641 269.02H365.636Z" fill="#F7F7F7"/>
<path d="M409.385 269.02C408.698 269.02 408.054 268.759 407.453 268.236C406.938 267.627 406.68 266.974 406.68 266.278C406.68 265.755 406.723 265.363 406.809 265.102L437.084 181.258C437.341 180.213 437.899 179.343 438.758 178.646C439.617 177.95 440.734 177.601 442.108 177.601H461.174C462.549 177.601 463.665 177.95 464.524 178.646C465.383 179.343 465.941 180.213 466.199 181.258L496.345 265.102L496.602 266.278C496.602 266.974 496.302 267.627 495.701 268.236C495.185 268.759 494.541 269.02 493.768 269.02H477.922C475.861 269.02 474.487 268.106 473.8 266.278L468.775 252.956H434.378L429.483 266.278C428.796 268.106 427.378 269.02 425.231 269.02H409.385ZM463.622 234.15L451.641 199.672L439.66 234.15H463.622Z" fill="#F7F7F7"/>
<path d="M542.619 270.326C530.509 270.326 521.019 267.322 514.148 261.315C507.363 255.307 503.971 246.252 503.971 234.15V180.866C503.971 179.909 504.271 179.125 504.873 178.516C505.56 177.906 506.333 177.601 507.191 177.601H523.81C524.755 177.601 525.528 177.906 526.129 178.516C526.816 179.125 527.16 179.909 527.16 180.866V234.02C527.16 239.679 528.448 243.945 531.025 246.818C533.687 249.604 537.509 250.998 542.49 250.998C547.386 250.998 551.165 249.561 553.827 246.688C556.49 243.815 557.821 239.592 557.821 234.02V180.866C557.821 179.909 558.122 179.125 558.723 178.516C559.41 177.906 560.183 177.601 561.042 177.601H577.789C578.734 177.601 579.507 177.906 580.108 178.516C580.71 179.125 581.01 179.909 581.01 180.866V234.15C581.01 246.252 577.575 255.307 570.704 261.315C563.919 267.322 554.557 270.326 542.619 270.326Z" fill="#F7F7F7"/>
<path d="M601.315 269.02C600.456 269.02 599.683 268.715 598.996 268.106C598.395 267.409 598.094 266.626 598.094 265.755V180.866C598.094 179.909 598.395 179.125 598.996 178.516C599.683 177.906 600.456 177.601 601.315 177.601H636.356C647.607 177.601 656.367 180.213 662.637 185.437C668.993 190.574 672.17 197.888 672.17 207.378C672.17 213.472 670.753 218.653 667.919 222.919C665.085 227.185 661.177 230.45 656.196 232.714L673.845 264.841C674.103 265.363 674.232 265.842 674.232 266.278C674.232 266.974 673.931 267.627 673.33 268.236C672.815 268.759 672.213 269.02 671.526 269.02H654.392C651.901 269.02 650.141 267.845 649.11 265.494L634.424 236.762H621.283V265.755C621.283 266.713 620.94 267.496 620.253 268.106C619.651 268.715 618.878 269.02 617.934 269.02H601.315ZM636.098 218.217C640.049 218.217 643.055 217.26 645.116 215.344C647.178 213.342 648.208 210.599 648.208 207.117C648.208 203.634 647.178 200.891 645.116 198.889C643.141 196.799 640.135 195.754 636.098 195.754H621.283V218.217H636.098Z" fill="#F7F7F7"/>
<path d="M690.388 269.02C689.529 269.02 688.756 268.715 688.069 268.106C687.467 267.409 687.167 266.626 687.167 265.755V180.866C687.167 179.909 687.467 179.125 688.069 178.516C688.756 177.906 689.529 177.601 690.388 177.601H707.651C708.595 177.601 709.368 177.906 709.969 178.516C710.657 179.125 711 179.909 711 180.866V265.755C711 266.713 710.657 267.496 709.969 268.106C709.368 268.715 708.595 269.02 707.651 269.02H690.388Z" fill="#F7F7F7"/>
<path d="M237.134 191.302C237.134 201.037 229.349 208.929 219.746 208.929C210.143 208.929 202.358 201.037 202.358 191.302C202.358 181.567 210.143 173.675 219.746 173.675C229.349 173.675 237.134 181.567 237.134 191.302Z" fill="#FFC131"/>
<ellipse cx="190.503" cy="241.779" rx="17.3879" ry="17.6267" transform="rotate(180 190.503 241.779)" fill="#24C8DB"/>
<path fill-rule="evenodd" clip-rule="evenodd" d="M255.783 247.826C248.766 252.424 240.991 255.615 232.878 257.275C234.538 252.42 235.441 247.206 235.441 241.779C235.441 239.81 235.322 237.869 235.091 235.964C238.582 234.731 241.934 233.077 245.069 231.022C252.615 226.078 258.592 219.031 262.282 210.727C265.972 202.423 267.219 193.215 265.871 184.21C264.524 175.206 260.641 166.787 254.688 159.965C248.734 153.144 240.965 148.21 232.313 145.757C223.66 143.303 214.493 143.435 205.913 146.136C197.333 148.836 189.704 153.991 183.944 160.98C183.206 161.876 182.503 162.796 181.835 163.74C172.946 164.741 164.337 167.291 156.375 171.236C158.967 162.826 163.174 154.974 168.797 148.152C176.994 138.205 187.85 130.87 200.061 127.027C212.271 123.184 225.316 122.996 237.629 126.488C249.942 129.979 260.999 137 269.47 146.707C277.942 156.415 283.469 168.395 285.386 181.21C287.303 194.024 285.529 207.128 280.278 218.945C275.027 230.762 266.521 240.791 255.783 247.826ZM157.166 183.51L173.442 185.537C173.829 182.339 174.536 179.205 175.542 176.181C169.087 177.683 162.893 180.155 157.166 183.51Z" fill="#FFC131"/>
<path fill-rule="evenodd" clip-rule="evenodd" d="M154.353 185.254C161.423 180.623 169.262 177.418 177.442 175.769C175.593 180.86 174.583 186.362 174.583 192.103C174.583 193.821 174.673 195.517 174.849 197.186C171.429 198.411 168.144 200.043 165.067 202.059C157.521 207.003 151.544 214.05 147.854 222.354C144.164 230.658 142.918 239.866 144.265 248.871C145.612 257.875 149.496 266.294 155.449 273.116C161.402 279.937 169.171 284.871 177.824 287.324C186.476 289.777 195.643 289.646 204.223 286.945C212.804 284.245 220.432 279.09 226.193 272.1C226.934 271.201 227.641 270.275 228.311 269.327C237.207 268.31 245.82 265.743 253.781 261.779C251.192 270.214 246.977 278.089 241.34 284.929C233.142 294.875 222.286 302.211 210.076 306.054C197.865 309.897 184.82 310.084 172.507 306.593C160.194 303.102 149.138 296.081 140.666 286.373C132.194 276.666 126.668 264.685 124.751 251.871C122.833 239.056 124.607 225.953 129.858 214.136C135.11 202.319 143.615 192.29 154.353 185.254ZM252.877 249.559L252.877 249.559C250.358 251.036 247.74 252.347 245.04 253.481C247.732 252.351 250.35 251.041 252.877 249.559ZM238.903 255.707C237.483 256.144 236.048 256.532 234.604 256.871C234.604 256.871 234.604 256.871 234.604 256.871C236.051 256.531 237.485 256.143 238.903 255.707Z" fill="#24C8DB"/>
</g>
<defs>
<clipPath id="clip0">
<rect width="2251" height="432" rx="75" fill="white"/>
</clipPath>
</defs>
</svg>
